<?xml version="1.0" standalone="no"?>
<svg xmlns="http://www.w3.org/2000/svg" xmlns:xlink="http://www.w3.org/1999/xlink" width="1684pt" height="1193pt" viewBox="0.00 0.00 1683.66 1192.82">
<g id="graph0" class="graph" transform="translate(125.26289900078427,1014.8173190171462) scale(0.7937835813244787)" data-name="G">

<polygon fill="white" stroke="none" points="-4,4 -4,-1188.82 1679.66,-1188.82 1679.66,4 -4,4"/>
<!-- IWLSETHV1 -->
<g id="node1" class="node" pointer-events="visible" data-name="IWLSETHV1">

<ellipse fill="none" stroke="black" cx="471.21" cy="-308" rx="65.42" ry="18"/>
<text text-anchor="middle" x="471.21" y="-303.8" font-family="Times,serif" font-size="14.00">IWLSETHV1</text>
</g>
<!-- UserDepositManagerV1 -->
<g id="node2" class="node" pointer-events="visible" data-name="UserDepositManagerV1">

<ellipse fill="none" stroke="black" cx="105.43" cy="-401" rx="105.36" ry="18"/>
<text text-anchor="middle" x="105.43" y="-396.8" font-family="Times,serif" font-size="14.00">UserDepositManagerV1</text>
</g>
<!-- IUserDepositManagerV1 -->
<g id="node3" class="node" pointer-events="visible" data-name="IUserDepositManagerV1">

<ellipse fill="none" stroke="black" cx="391.51" cy="-401" rx="108.8" ry="18"/>
<text text-anchor="middle" x="391.51" y="-396.8" font-family="Times,serif" font-size="14.00">IUserDepositManagerV1</text>
</g>
<!-- UserDepositManagerV1&#45;&gt;IUserDepositManagerV1 -->
<g id="edge1" class="edge" data-name="UserDepositManagerV1-&gt;IUserDepositManagerV1">

<path fill="none" stroke="black" d="M211.15,-401C230.66,-401 251.18,-401 271.09,-401"/>
<polygon fill="black" stroke="black" points="270.89,-404.5 280.89,-401 270.89,-397.5 270.89,-404.5"/>
</g>
<!-- LibSanitize -->
<g id="node4" class="node" pointer-events="visible" data-name="LibSanitize">

<ellipse fill="none" stroke="black" cx="1187.21" cy="-337" rx="55.61" ry="18"/>
<text text-anchor="middle" x="1187.21" y="-332.8" font-family="Times,serif" font-size="14.00">LibSanitize</text>
</g>
<!-- LibErrors -->
<g id="node5" class="node" pointer-events="visible" data-name="LibErrors">

<ellipse fill="none" stroke="black" cx="658.21" cy="-76" rx="48.66" ry="18"/>
<text text-anchor="middle" x="658.21" y="-71.8" font-family="Times,serif" font-size="14.00">LibErrors</text>
</g>
<!-- LibBasisPoints -->
<g id="node6" class="node" pointer-events="visible" data-name="LibBasisPoints">

<ellipse fill="none" stroke="black" cx="476.21" cy="-569" rx="69.55" ry="18"/>
<text text-anchor="middle" x="476.21" y="-564.8" font-family="Times,serif" font-size="14.00">LibBasisPoints</text>
</g>
<!-- BalanceToDeposit -->
<g id="node7" class="node" pointer-events="visible" data-name="BalanceToDeposit">

<ellipse fill="none" stroke="black" cx="605.21" cy="-656" rx="82.81" ry="18"/>
<text text-anchor="middle" x="605.21" y="-651.8" font-family="Times,serif" font-size="14.00">BalanceToDeposit</text>
</g>
<!-- LibUnstructuredStorage -->
<g id="node8" class="node" pointer-events="visible" data-name="LibUnstructuredStorage">

<ellipse fill="none" stroke="black" cx="1090.21" cy="-250" rx="104.22" ry="18"/>
<text text-anchor="middle" x="1090.21" y="-245.8" font-family="Times,serif" font-size="14.00">LibUnstructuredStorage</text>
</g>
<!-- OracleV1 -->
<g id="node9" class="node" pointer-events="visible" data-name="OracleV1">

<ellipse fill="none" stroke="black" cx="917.21" cy="-884" rx="48.64" ry="18"/>
<text text-anchor="middle" x="917.21" y="-879.8" font-family="Times,serif" font-size="14.00">OracleV1</text>
</g>
<!-- IOracleV1 -->
<g id="node10" class="node" pointer-events="visible" data-name="IOracleV1">

<ellipse fill="none" stroke="black" cx="1209.56" cy="-884" rx="51.57" ry="18"/>
<text text-anchor="middle" x="1209.56" y="-879.8" font-family="Times,serif" font-size="14.00">IOracleV1</text>
</g>
<!-- OracleV1&#45;&gt;IOracleV1 -->
<g id="edge2" class="edge" data-name="OracleV1-&gt;IOracleV1">

<path fill="none" stroke="black" d="M966.14,-884C1015.51,-884 1091.96,-884 1146,-884"/>
<polygon fill="black" stroke="black" points="1146,-887.5 1156,-884 1146,-880.5 1146,-887.5"/>
</g>
<!-- Initializable -->
<g id="node11" class="node" pointer-events="visible" data-name="Initializable">

<ellipse fill="none" stroke="black" cx="843.16" cy="-1166.82" rx="57.3" ry="18"/>
<text text-anchor="middle" x="843.16" y="-1162.62" font-family="Times,serif" font-size="14.00">Initializable</text>
</g>
<!-- OracleV1&#45;&gt;Initializable -->
<g id="edge3" class="edge" data-name="OracleV1-&gt;Initializable">

<path fill="none" stroke="black" d="M912.46,-902.12C899.98,-949.8 866.13,-1079.07 850.84,-1137.47"/>
<polygon fill="black" stroke="black" points="847.49,-1136.46 848.34,-1147.02 854.26,-1138.24 847.49,-1136.46"/>
</g>
<!-- Administrable -->
<g id="node12" class="node" pointer-events="visible" data-name="Administrable">

<ellipse fill="none" stroke="black" cx="804.39" cy="-735.04" rx="66.07" ry="18"/>
<text text-anchor="middle" x="804.39" y="-730.84" font-family="Times,serif" font-size="14.00">Administrable</text>
</g>
<!-- OracleV1&#45;&gt;Administrable -->
<g id="edge4" class="edge" data-name="OracleV1-&gt;Administrable">

<path fill="none" stroke="black" d="M903.82,-866.33C884.23,-840.46 847.59,-792.08 824.68,-761.83"/>
<polygon fill="black" stroke="black" points="827.5,-759.76 818.68,-753.9 821.92,-763.98 827.5,-759.76"/>
</g>
<!-- IAdministrable -->
<g id="node22" class="node" pointer-events="visible" data-name="IAdministrable">

<ellipse fill="none" stroke="black" cx="678.95" cy="-569.4" rx="69.5" ry="18"/>
<text text-anchor="middle" x="678.95" y="-565.2" font-family="Times,serif" font-size="14.00">IAdministrable</text>
</g>
<!-- Administrable&#45;&gt;IAdministrable -->
<g id="edge10" class="edge" data-name="Administrable-&gt;IAdministrable">

<path fill="none" stroke="black" d="M790.73,-717C768.67,-687.87 725.1,-630.34 699.35,-596.34"/>
<polygon fill="black" stroke="black" points="702.33,-594.48 693.51,-588.62 696.75,-598.71 702.33,-594.48"/>
</g>
<!-- IRiverV1 -->
<g id="node13" class="node" pointer-events="visible" data-name="IRiverV1">

<ellipse fill="none" stroke="black" cx="1021.29" cy="-401" rx="47.52" ry="18"/>
<text text-anchor="middle" x="1021.29" y="-396.8" font-family="Times,serif" font-size="14.00">IRiverV1</text>
</g>
<!-- IRiverV1&#45;&gt;IUserDepositManagerV1 -->
<g id="edge6" class="edge" data-name="IRiverV1-&gt;IUserDepositManagerV1">

<path fill="none" stroke="black" d="M973.43,-401C875.97,-401 651.84,-401 511.91,-401"/>
<polygon fill="black" stroke="black" points="512.25,-397.5 502.25,-401 512.25,-404.5 512.25,-397.5"/>
</g>
<!-- IConsensusLayerDepositManagerV1 -->
<g id="node14" class="node" pointer-events="visible" data-name="IConsensusLayerDepositManagerV1">

<ellipse fill="none" stroke="black" cx="866.44" cy="-162.55" rx="154.49" ry="18"/>
<text text-anchor="middle" x="866.44" y="-158.35" font-family="Times,serif" font-size="14.00">IConsensusLayerDepositManagerV1</text>
</g>
<!-- IRiverV1&#45;&gt;IConsensusLayerDepositManagerV1 -->
<g id="edge5" class="edge" data-name="IRiverV1-&gt;IConsensusLayerDepositManagerV1">

<path fill="none" stroke="black" d="M1009.65,-383.08C982.8,-341.73 916.39,-239.47 884.33,-190.09"/>
<polygon fill="black" stroke="black" points="887.42,-188.43 879.04,-181.95 881.55,-192.24 887.42,-188.43"/>
</g>
<!-- ISharesManagerV1 -->
<g id="node15" class="node" pointer-events="visible" data-name="ISharesManagerV1">

<ellipse fill="none" stroke="black" cx="1225.44" cy="-425.58" rx="86.24" ry="18"/>
<text text-anchor="middle" x="1225.44" y="-421.38" font-family="Times,serif" font-size="14.00">ISharesManagerV1</text>
</g>
<!-- IRiverV1&#45;&gt;ISharesManagerV1 -->
<g id="edge7" class="edge" data-name="IRiverV1-&gt;ISharesManagerV1">

<path fill="none" stroke="black" d="M1067.1,-406.52C1088.31,-409.07 1114.22,-412.19 1138.9,-415.16"/>
<polygon fill="black" stroke="black" points="1138.28,-418.61 1148.63,-416.33 1139.12,-411.66 1138.28,-418.61"/>
</g>
<!-- IOracleManagerV1 -->
<g id="node16" class="node" pointer-events="visible" data-name="IOracleManagerV1">

<ellipse fill="none" stroke="black" cx="866.44" cy="-639.45" rx="86.21" ry="18"/>
<text text-anchor="middle" x="866.44" y="-635.25" font-family="Times,serif" font-size="14.00">IOracleManagerV1</text>
</g>
<!-- IRiverV1&#45;&gt;IOracleManagerV1 -->
<g id="edge8" class="edge" data-name="IRiverV1-&gt;IOracleManagerV1">

<path fill="none" stroke="black" d="M1009.65,-418.92C982.8,-460.27 916.39,-562.53 884.33,-611.91"/>
<polygon fill="black" stroke="black" points="881.55,-609.76 879.04,-620.05 887.42,-613.57 881.55,-609.76"/>
</g>
<!-- IERC20 -->
<g id="node20" class="node" pointer-events="visible" data-name="IERC20">

<ellipse fill="none" stroke="black" cx="1424.81" cy="-449.59" rx="42.88" ry="18"/>
<text text-anchor="middle" x="1424.81" y="-445.39" font-family="Times,serif" font-size="14.00">IERC20</text>
</g>
<!-- ISharesManagerV1&#45;&gt;IERC20 -->
<g id="edge9" class="edge" data-name="ISharesManagerV1-&gt;IERC20">

<path fill="none" stroke="black" d="M1300.81,-434.66C1324.46,-437.5 1350.05,-440.59 1371.81,-443.21"/>
<polygon fill="black" stroke="black" points="1371.29,-446.67 1381.64,-444.39 1372.13,-439.72 1371.29,-446.67"/>
</g>
<!-- DailyCommittableLimits -->
<g id="node17" class="node" pointer-events="visible" data-name="DailyCommittableLimits">

<ellipse fill="none" stroke="black" cx="775.21" cy="-337" rx="108.27" ry="18"/>
<text text-anchor="middle" x="775.21" y="-332.8" font-family="Times,serif" font-size="14.00">DailyCommittableLimits</text>
</g>
<!-- CLSpec -->
<g id="node18" class="node" pointer-events="visible" data-name="CLSpec">

<ellipse fill="none" stroke="black" cx="448.21" cy="-772" rx="42.3" ry="18"/>
<text text-anchor="middle" x="448.21" y="-767.8" font-family="Times,serif" font-size="14.00">CLSpec</text>
</g>
<!-- ReportBounds -->
<g id="node19" class="node" pointer-events="visible" data-name="ReportBounds">

<ellipse fill="none" stroke="black" cx="1140.21" cy="-105" rx="66.67" ry="18"/>
<text text-anchor="middle" x="1140.21" y="-100.8" font-family="Times,serif" font-size="14.00">ReportBounds</text>
</g>
<!-- ReportsVariants -->
<g id="node21" class="node" pointer-events="visible" data-name="ReportsVariants">

<ellipse fill="none" stroke="black" cx="625.21" cy="-743" rx="73.59" ry="18"/>
<text text-anchor="middle" x="625.21" y="-738.8" font-family="Times,serif" font-size="14.00">ReportsVariants</text>
</g>
<!-- LibAdministrable -->
<g id="node23" class="node" pointer-events="visible" data-name="LibAdministrable">

<ellipse fill="none" stroke="black" cx="544.21" cy="-482" rx="79.89" ry="18"/>
<text text-anchor="middle" x="544.21" y="-477.8" font-family="Times,serif" font-size="14.00">LibAdministrable</text>
</g>
<!-- AdministratorAddress -->
<g id="node24" class="node" pointer-events="visible" data-name="AdministratorAddress">

<ellipse fill="none" stroke="black" cx="677.21" cy="-250" rx="96.73" ry="18"/>
<text text-anchor="middle" x="677.21" y="-245.8" font-family="Times,serif" font-size="14.00">AdministratorAddress</text>
</g>
<!-- PendingAdministratorAddress -->
<g id="node25" class="node" pointer-events="visible" data-name="PendingAdministratorAddress">

<ellipse fill="none" stroke="black" cx="796.21" cy="-482" rx="128.54" ry="18"/>
<text text-anchor="middle" x="796.21" y="-477.8" font-family="Times,serif" font-size="14.00">PendingAdministratorAddress</text>
</g>
<!-- Version -->
<g id="node26" class="node" pointer-events="visible" data-name="Version">

<ellipse fill="none" stroke="black" cx="419.21" cy="-685" rx="41.72" ry="18"/>
<text text-anchor="middle" x="419.21" y="-680.8" font-family="Times,serif" font-size="14.00">Version</text>
</g>
<!-- RiverAddress -->
<g id="node27" class="node" pointer-events="visible" data-name="RiverAddress">

<ellipse fill="none" stroke="black" cx="1166.21" cy="-801" rx="64.28" ry="18"/>
<text text-anchor="middle" x="1166.21" y="-796.8" font-family="Times,serif" font-size="14.00">RiverAddress</text>
</g>
<!-- LastEpochId -->
<g id="node28" class="node" pointer-events="visible" data-name="LastEpochId">

<ellipse fill="none" stroke="black" cx="988.21" cy="-801" rx="60.26" ry="18"/>
<text text-anchor="middle" x="988.21" y="-796.8" font-family="Times,serif" font-size="14.00">LastEpochId</text>
</g>
<!-- OracleMembers -->
<g id="node29" class="node" pointer-events="visible" data-name="OracleMembers">

<ellipse fill="none" stroke="black" cx="479.21" cy="-76" rx="73.48" ry="18"/>
<text text-anchor="middle" x="479.21" y="-71.8" font-family="Times,serif" font-size="14.00">OracleMembers</text>
</g>
<!-- Quorum -->
<g id="node30" class="node" pointer-events="visible" data-name="Quorum">

<ellipse fill="none" stroke="black" cx="1000.21" cy="-18" rx="43.45" ry="18"/>
<text text-anchor="middle" x="1000.21" y="-13.8" font-family="Times,serif" font-size="14.00">Quorum</text>
</g>
<!-- ReportsPositions -->
<g id="node31" class="node" pointer-events="visible" data-name="ReportsPositions">

<ellipse fill="none" stroke="black" cx="830.21" cy="-76" rx="76.5" ry="18"/>
<text text-anchor="middle" x="830.21" y="-71.8" font-family="Times,serif" font-size="14.00">ReportsPositions</text>
</g>
<!-- ITLCV1 -->
<g id="node32" class="node" pointer-events="visible" data-name="ITLCV1">

<ellipse fill="none" stroke="black" cx="1307.21" cy="-794" rx="44.09" ry="18"/>
<text text-anchor="middle" x="1307.21" y="-789.8" font-family="Times,serif" font-size="14.00">ITLCV1</text>
</g>
<!-- IERC20Upgradeable -->
<g id="node33" class="node" pointer-events="visible" data-name="IERC20Upgradeable">

<ellipse fill="none" stroke="black" cx="1583.64" cy="-794" rx="92.04" ry="18"/>
<text text-anchor="middle" x="1583.64" y="-789.8" font-family="Times,serif" font-size="14.00">IERC20Upgradeable</text>
</g>
<!-- ITLCV1&#45;&gt;IERC20Upgradeable -->
<g id="edge11" class="edge" data-name="ITLCV1-&gt;IERC20Upgradeable">

<path fill="none" stroke="black" d="M1351.62,-794C1386.16,-794 1435.49,-794 1479.8,-794"/>
<polygon fill="black" stroke="black" points="1479.72,-797.5 1489.72,-794 1479.72,-790.5 1479.72,-797.5"/>
</g>
<!-- IVotesUpgradeable -->
<g id="node34" class="node" pointer-events="visible" data-name="IVotesUpgradeable">

<ellipse fill="none" stroke="black" cx="1211.85" cy="-1053.46" rx="86.23" ry="18"/>
<text text-anchor="middle" x="1211.85" y="-1049.26" font-family="Times,serif" font-size="14.00">IVotesUpgradeable</text>
</g>
<!-- ITLCV1&#45;&gt;IVotesUpgradeable -->
<g id="edge12" class="edge" data-name="ITLCV1-&gt;IVotesUpgradeable">

<path fill="none" stroke="black" d="M1300.5,-812.25C1284.16,-856.72 1242.15,-971.01 1222.41,-1024.74"/>
<polygon fill="black" stroke="black" points="1219.23,-1023.23 1219.07,-1033.82 1225.8,-1025.64 1219.23,-1023.23"/>
</g>
<!-- IERC20VestableVotesUpgradeableV1 -->
<g id="node35" class="node" pointer-events="visible" data-name="IERC20VestableVotesUpgradeableV1">

<ellipse fill="none" stroke="black" cx="1146.59" cy="-569.02" rx="160.28" ry="18"/>
<text text-anchor="middle" x="1146.59" y="-564.82" font-family="Times,serif" font-size="14.00">IERC20VestableVotesUpgradeableV1</text>
</g>
<!-- ITLCV1&#45;&gt;IERC20VestableVotesUpgradeableV1 -->
<g id="edge13" class="edge" data-name="ITLCV1-&gt;IERC20VestableVotesUpgradeableV1">

<path fill="none" stroke="black" d="M1294.6,-776.35C1266.71,-737.27 1199.59,-643.26 1166.18,-596.45"/>
<polygon fill="black" stroke="black" points="1169.12,-594.55 1160.46,-588.44 1163.42,-598.62 1169.12,-594.55"/>
</g>
<!-- VestingSchedulesV2 -->
<g id="node36" class="node" pointer-events="visible" data-name="VestingSchedulesV2">

<ellipse fill="none" stroke="black" cx="585.21" cy="-163" rx="92.07" ry="18"/>
<text text-anchor="middle" x="585.21" y="-158.8" font-family="Times,serif" font-size="14.00">VestingSchedulesV2</text>
</g>
<!-- VestingSchedulesV1 -->
<g id="node37" class="node" pointer-events="visible" data-name="VestingSchedulesV1">

<ellipse fill="none" stroke="black" cx="1107.21" cy="-714" rx="92.07" ry="18"/>
<text text-anchor="middle" x="1107.21" y="-709.8" font-family="Times,serif" font-size="14.00">VestingSchedulesV1</text>
</g>
</g>
</svg>