<?xml version="1.0" encoding="UTF-8"?><svg id="Layer_2" xmlns="http://www.w3.org/2000/svg" viewBox="0 0 647.17 70.19"><defs><style>.cls-1{fill:#fff;}</style></defs><g id="Layer_1-2"><g><path class="cls-1" d="M0,0H10.73V46.77H50.55v9.52H0V0Z"/><path class="cls-1" d="M55.84,0h9.37V8.31h-9.37V0Zm0,15.71h9.37V56.29h-9.37V15.71Z"/><path class="cls-1" d="M108.5,52.06c-4,2.87-7.78,5.59-15.94,5.59-11.48,0-21.38-8.16-21.38-21.91,0-12.31,8.39-21.38,21.76-21.38,8.92,0,13.6,4.54,15.72,6.58v-5.22h9.22v54.48h-9.37v-18.13Zm0-24.11c-2.87-2.34-6.73-5.59-13.53-5.59-7.18,0-14.28,4.53-14.28,13.67s6.73,13.6,13.98,13.6c6.42,0,10.2-3.1,13.83-5.89v-15.79Z"/><path class="cls-1" d="M164.87,56.29h-9.22v-5.06c-2.79,2.87-6.95,6.42-15.19,6.42s-15.87-3.55-15.87-15.94V15.71h9.37v22.52c0,8.01,2.42,11.41,8.69,11.41,7.48,0,10.5-3.1,12.85-5.97V15.71h9.37V56.29Z"/><path class="cls-1" d="M173.48,0h9.37V8.31h-9.37V0Zm0,15.71h9.37V56.29h-9.37V15.71Z"/><path class="cls-1" d="M224.79,51.08c-2.12,2.04-6.8,6.57-16.1,6.57-11.48,0-21.38-8.16-21.38-21.91,0-12.31,8.39-21.38,21.76-21.38,7.78,0,11.56,2.72,15.57,5.59V0h9.37V56.29h-9.22v-5.21Zm-.15-23.12c-2.87-2.34-6.73-5.59-13.53-5.59-7.18,0-14.28,4.53-14.28,13.67s6.73,13.6,13.98,13.6c6.42,0,10.2-3.1,13.83-5.89v-15.79Z"/><path class="cls-1" d="M326.42,36.72c-1.06,6.12-5.44,20.93-30.68,20.93-17.38,0-31.06-9.67-31.06-29.7,0-16.02,10.05-27.96,31.89-27.96,24.56,0,28.18,15.94,29.02,18.89h-10.73c-.6-1.89-4.84-9.67-17.68-9.67-15.19,0-21.53,8.54-21.53,19.95,0,12.62,9.14,19.27,20.93,19.27,12.54,0,18.06-7.48,19.12-11.71h10.73Z"/><path class="cls-1" d="M329.52,35.97c0-10.88,6.57-21.61,22.74-21.61s22.74,10.73,22.74,21.61c0,16.17-11.64,21.68-22.74,21.68s-22.74-5.52-22.74-21.68Zm35.97-.15c0-9.52-6.12-13.45-13.22-13.45s-13.22,3.93-13.22,13.45c0,8.61,4.84,13.83,13.22,13.83s13.22-5.21,13.22-13.83Z"/><path class="cls-1" d="M380.97,0h9.37V56.29h-9.37V0Z"/><path class="cls-1" d="M398.2,0h9.37V56.29h-9.37V0Z"/><path class="cls-1" d="M458.12,44.13c-.68,3.33-6.12,13.52-21.16,13.52s-23.2-9.07-23.2-21.76c0-11.48,7.56-21.54,22.52-21.54,15.26,.15,22.59,9.6,22.59,24.26h-35.59c.38,2.57,1.81,11.03,13.37,11.48,5.89,0,9.82-2.8,11.18-5.97h10.28Zm-9.22-12.77c-1.44-6.88-6.12-9.45-12.85-9.45-4.91,0-10.58,1.66-12.47,9.45h25.31Z"/><path class="cls-1" d="M507.16,41.78c-1.28,5.67-6.95,15.87-21.84,15.87-13,0-23.65-6.35-23.65-22.67,0-10.65,8.39-20.55,22.82-20.63,14.89-.07,21.23,8.46,21.91,15.34h-9.37c-.91-3.25-4.91-7.33-11.94-7.33-8.84,0-13.9,6.5-13.9,12.99,0,7.78,4.16,14.28,13.15,14.28,8.09,0,12.16-4.23,13-7.86h9.82Z"/><path class="cls-1" d="M507.99,17.08h7.25V3.85h9.37v13.22h14.13v8.01h-14.13v18.59c0,2.87,1.13,5.97,6.57,5.97,1.81,0,5.59-.45,8.01-1.13v8.24c-4.61,.61-6.8,.91-10.12,.91-8.92,0-13.83-2.87-13.83-11.79V25.09h-7.25v-8.01Z"/><path class="cls-1" d="M544.4,0h9.37V8.31h-9.37V0Zm0,15.71h9.37V56.29h-9.37V15.71Z"/><path class="cls-1" d="M565.86,15.71l13.68,30.07,13.6-30.07h10.28l-19.34,40.58h-9.37l-19.12-40.58h10.28Z"/><path class="cls-1" d="M646.41,44.13c-.68,3.33-6.12,13.52-21.16,13.52s-23.2-9.07-23.2-21.76c0-11.48,7.56-21.54,22.52-21.54,15.26,.15,22.59,9.6,22.59,24.26h-35.59c.38,2.57,1.81,11.03,13.37,11.48,5.89,0,9.82-2.8,11.18-5.97h10.28Zm-9.22-12.77c-1.44-6.88-6.12-9.45-12.85-9.45-4.91,0-10.58,1.66-12.47,9.45h25.31Z"/></g></g></svg>