<?xml version="1.0" standalone="no"?>
<svg xmlns="http://www.w3.org/2000/svg" xmlns:xlink="http://www.w3.org/1999/xlink" width="560pt" height="1473pt" viewBox="0.00 0.00 560.05 1473">
<g id="graph0" class="graph" transform="translate(-436.7420671236482,3235.7817427254345) scale(2.3469960758396615)" data-name="G">

<polygon fill="#2e3e56" stroke="none" points="-4,4 -4,-1469 556.05,-1469 556.05,4 -4,4"/>
<g id="clust1" class="cluster" data-name="clusterAllowlistV1">

<path fill="#445773" stroke="#445773" d="M20,-595C20,-595 532.05,-595 532.05,-595 538.05,-595 544.05,-601 544.05,-607 544.05,-607 544.05,-1308 544.05,-1308 544.05,-1314 538.05,-1320 532.05,-1320 532.05,-1320 20,-1320 20,-1320 14,-1320 8,-1314 8,-1308 8,-1308 8,-607 8,-607 8,-601 14,-595 20,-595" style=""/>
<text text-anchor="middle" x="276.02" y="-1303.4" font-family="Times,serif" font-size="14.00" fill="#f0f0f0" style="">AllowlistV1</text>
</g>
<g id="clust2" class="cluster" data-name="clusterAllowerAddress">

<path fill="#3b4b63" stroke="#e8726d" stroke-dasharray="5,2" d="M345.61,-456C345.61,-456 428.61,-456 428.61,-456 434.61,-456 440.61,-462 440.61,-468 440.61,-468 440.61,-575 440.61,-575 440.61,-581 434.61,-587 428.61,-587 428.61,-587 345.61,-587 345.61,-587 339.61,-587 333.61,-581 333.61,-575 333.61,-575 333.61,-468 333.61,-468 333.61,-462 339.61,-456 345.61,-456" style=""/>
<text text-anchor="middle" x="387.11" y="-570.4" font-family="Times,serif" font-size="14.00" fill="#f0f0f0" style="">AllowerAddress</text>
</g>
<g id="clust3" class="cluster" data-name="clusterDenierAddress">

<path fill="#3b4b63" stroke="#e8726d" stroke-dasharray="5,2" d="M349.61,-317C349.61,-317 424.61,-317 424.61,-317 430.61,-317 436.61,-323 436.61,-329 436.61,-329 436.61,-436 436.61,-436 436.61,-442 430.61,-448 424.61,-448 424.61,-448 349.61,-448 349.61,-448 343.61,-448 337.61,-442 337.61,-436 337.61,-436 337.61,-329 337.61,-329 337.61,-323 343.61,-317 349.61,-317" style=""/>
<text text-anchor="middle" x="387.11" y="-431.4" font-family="Times,serif" font-size="14.00" fill="#f0f0f0" style="">DenierAddress</text>
</g>
<g id="clust4" class="cluster" data-name="clusterAllowlist">

<path fill="#3b4b63" stroke="#e8726d" stroke-dasharray="5,2" d="M363.61,-178C363.61,-178 409.61,-178 409.61,-178 415.61,-178 421.61,-184 421.61,-190 421.61,-190 421.61,-297 421.61,-297 421.61,-303 415.61,-309 409.61,-309 409.61,-309 363.61,-309 363.61,-309 357.61,-309 351.61,-303 351.61,-297 351.61,-297 351.61,-190 351.61,-190 351.61,-184 357.61,-178 363.61,-178" style=""/>
<text text-anchor="middle" x="386.61" y="-292.4" font-family="Times,serif" font-size="14.00" fill="#f0f0f0" style="">Allowlist</text>
</g>
<g id="clust5" class="cluster" data-name="clusterLibErrors">

<path fill="#3b4b63" stroke="#e8726d" stroke-dasharray="5,2" d="M327.02,-93C327.02,-93 446.2,-93 446.2,-93 452.2,-93 458.2,-99 458.2,-105 458.2,-105 458.2,-158 458.2,-158 458.2,-164 452.2,-170 446.2,-170 446.2,-170 327.02,-170 327.02,-170 321.02,-170 315.02,-164 315.02,-158 315.02,-158 315.02,-105 315.02,-105 315.02,-99 321.02,-93 327.02,-93" style=""/>
<text text-anchor="middle" x="386.61" y="-153.4" font-family="Times,serif" font-size="14.00" fill="#f0f0f0" style="">LibErrors</text>
</g>
<g id="clust6" class="cluster" data-name="clusterLibSanitize">

<path fill="#3b4b63" stroke="#e8726d" stroke-dasharray="5,2" d="M312.53,-8C312.53,-8 460.69,-8 460.69,-8 466.69,-8 472.69,-14 472.69,-20 472.69,-20 472.69,-73 472.69,-73 472.69,-79 466.69,-85 460.69,-85 460.69,-85 312.53,-85 312.53,-85 306.53,-85 300.53,-79 300.53,-73 300.53,-73 300.53,-20 300.53,-20 300.53,-14 306.53,-8 312.53,-8" style=""/>
<text text-anchor="middle" x="386.61" y="-68.4" font-family="Times,serif" font-size="14.00" fill="#f0f0f0" style="">LibSanitize</text>
</g>
<g id="clust7" class="cluster" data-name="cluster_01">

<polygon fill="#2e3e56" stroke="black" points="35.59,-1328 35.59,-1457 421.61,-1457 421.61,-1328 35.59,-1328" style=""/>
<text text-anchor="middle" x="228.6" y="-1440.4" font-family="Times,serif" font-size="14.00" style="">Legend</text>
</g>
<!-- AllowlistV1.initAllowlistV1 -->
<g id="node1" class="node" pointer-events="visible" data-name="AllowlistV1.initAllowlistV1">

<ellipse fill="#ffbdb9" stroke="#ffbdb9" stroke-width="3" cx="108.59" cy="-1269" rx="71.83" ry="18"/>
<text text-anchor="middle" x="108.59" y="-1264.8" font-family="Times,serif" font-size="14.00">initAllowlistV1</text>
</g>
<!-- AllowlistV1._setAdmin -->
<g id="node14" class="node" pointer-events="visible" data-name="AllowlistV1._setAdmin">

<ellipse fill="#edad56" stroke="#edad56" stroke-width="3" cx="386.61" cy="-1269" rx="53.34" ry="18"/>
<text text-anchor="middle" x="386.61" y="-1264.8" font-family="Times,serif" font-size="14.00">_setAdmin</text>
</g>
<!-- AllowlistV1.initAllowlistV1&#45;&gt;AllowlistV1._setAdmin -->
<g id="edge1" class="edge" data-name="AllowlistV1.initAllowlistV1-&gt;AllowlistV1._setAdmin">

<path fill="none" stroke="#1bc6a6" stroke-width="2" d="M181.75,-1269C224.27,-1269 277.68,-1269 319.16,-1269"/>
<polygon fill="#1bc6a6" stroke="#1bc6a6" stroke-width="2" points="319.16,-1272.5 329.16,-1269 319.16,-1265.5 319.16,-1272.5"/>
</g>
<!-- AllowlistV1.SetAllower -->
<g id="node15" class="node" pointer-events="visible" data-name="AllowlistV1.SetAllower">

<ellipse fill="#edad56" stroke="#edad56" stroke-width="3" cx="386.61" cy="-1215" rx="55.04" ry="18"/>
<text text-anchor="middle" x="386.61" y="-1210.8" font-family="Times,serif" font-size="14.00">SetAllower</text>
</g>
<!-- AllowlistV1.initAllowlistV1&#45;&gt;AllowlistV1.SetAllower -->
<g id="edge3" class="edge" data-name="AllowlistV1.initAllowlistV1-&gt;AllowlistV1.SetAllower">

<path fill="none" stroke="#1bc6a6" stroke-width="2" d="M165.41,-1256.82C187.71,-1252.06 213.63,-1246.63 237.18,-1242 265.45,-1236.44 296.83,-1230.67 323.43,-1225.9"/>
<polygon fill="#1bc6a6" stroke="#1bc6a6" stroke-width="2" points="323.86,-1229.38 333.09,-1224.18 322.63,-1222.49 323.86,-1229.38"/>
</g>
<!-- AllowerAddress.set -->
<g id="node23" class="node" pointer-events="visible" data-name="AllowerAddress.set">

<ellipse fill="#edad56" stroke="#edad56" stroke-width="3" cx="386.61" cy="-536" rx="27" ry="18"/>
<text text-anchor="middle" x="386.61" y="-531.8" font-family="Times,serif" font-size="14.00">set</text>
</g>
<!-- AllowlistV1.initAllowlistV1&#45;&gt;AllowerAddress.set -->
<g id="edge2" class="edge" data-name="AllowlistV1.initAllowlistV1-&gt;AllowerAddress.set">

<path fill="none" stroke="white" stroke-width="2" d="M174.83,-1260.63C185.01,-1256.53 194.38,-1250.58 201.18,-1242 291.11,-1128.41 151.16,-707.59 237.18,-591 262.35,-556.88 311.09,-543.91 345.86,-538.99"/>
<polygon fill="white" stroke="white" stroke-width="2" points="345.9,-542.51 355.41,-537.83 345.06,-535.56 345.9,-542.51"/>
</g>
<!-- AllowlistV1.initAllowlistV1_1 -->
<g id="node2" class="node" pointer-events="visible" data-name="AllowlistV1.initAllowlistV1_1">

<ellipse fill="#ffbdb9" stroke="#ffbdb9" stroke-width="3" cx="108.59" cy="-1107" rx="81.15" ry="18"/>
<text text-anchor="middle" x="108.59" y="-1102.8" font-family="Times,serif" font-size="14.00">initAllowlistV1_1</text>
</g>
<!-- AllowlistV1.SetDenier -->
<g id="node16" class="node" pointer-events="visible" data-name="AllowlistV1.SetDenier">

<ellipse fill="#edad56" stroke="#edad56" stroke-width="3" cx="386.61" cy="-1161" rx="49.8" ry="18"/>
<text text-anchor="middle" x="386.61" y="-1156.8" font-family="Times,serif" font-size="14.00">SetDenier</text>
</g>
<!-- AllowlistV1.initAllowlistV1_1&#45;&gt;AllowlistV1.SetDenier -->
<g id="edge5" class="edge" data-name="AllowlistV1.initAllowlistV1_1-&gt;AllowlistV1.SetDenier">

<path fill="none" stroke="#1bc6a6" stroke-width="2" d="M169.55,-1120.06C190.88,-1124.6 215.07,-1129.65 237.18,-1134 266.91,-1139.85 300.08,-1145.92 327.51,-1150.83"/>
<polygon fill="#1bc6a6" stroke="#1bc6a6" stroke-width="2" points="326.63,-1154.23 337.09,-1152.53 327.86,-1147.34 326.63,-1154.23"/>
</g>
<!-- DenierAddress.set -->
<g id="node25" class="node" pointer-events="visible" data-name="DenierAddress.set">

<ellipse fill="#edad56" stroke="#edad56" stroke-width="3" cx="386.61" cy="-397" rx="27" ry="18"/>
<text text-anchor="middle" x="386.61" y="-392.8" font-family="Times,serif" font-size="14.00">set</text>
</g>
<!-- AllowlistV1.initAllowlistV1_1&#45;&gt;DenierAddress.set -->
<g id="edge4" class="edge" data-name="AllowlistV1.initAllowlistV1_1-&gt;DenierAddress.set">

<path fill="none" stroke="white" stroke-width="2" d="M178.93,-1096.84C187.5,-1092.85 195.3,-1087.4 201.18,-1080 288.06,-970.49 154.08,-564.4 237.18,-452 262.38,-417.9 311.12,-404.93 345.87,-400"/>
<polygon fill="white" stroke="white" stroke-width="2" points="345.92,-403.52 355.42,-398.84 345.07,-396.57 345.92,-403.52"/>
</g>
<!-- AllowlistV1.getAllower -->
<g id="node3" class="node" pointer-events="visible" data-name="AllowlistV1.getAllower">

<ellipse fill="#ffbdb9" stroke="#ffbdb9" stroke-width="3" cx="108.59" cy="-999" rx="54.46" ry="18"/>
<text text-anchor="middle" x="108.59" y="-994.8" font-family="Times,serif" font-size="14.00">getAllower</text>
</g>
<!-- AllowerAddress.get -->
<g id="node24" class="node" pointer-events="visible" data-name="AllowerAddress.get">

<ellipse fill="#edad56" stroke="#edad56" stroke-width="3" cx="386.61" cy="-482" rx="27" ry="18"/>
<text text-anchor="middle" x="386.61" y="-477.8" font-family="Times,serif" font-size="14.00">get</text>
</g>
<!-- AllowlistV1.getAllower&#45;&gt;AllowerAddress.get -->
<g id="edge6" class="edge" data-name="AllowlistV1.getAllower-&gt;AllowerAddress.get">

<path fill="none" stroke="white" stroke-width="2" d="M162.85,-994.42C177.36,-990.52 191.68,-983.72 201.18,-972 266.14,-891.81 168.03,-585.61 237.18,-509 264.06,-479.22 311.91,-475.41 346.01,-477.15"/>
<polygon fill="white" stroke="white" stroke-width="2" points="345.54,-480.63 355.77,-477.87 346.05,-473.65 345.54,-480.63"/>
</g>
<!-- AllowlistV1.getDenier -->
<g id="node4" class="node" pointer-events="visible" data-name="AllowlistV1.getDenier">

<ellipse fill="#ffbdb9" stroke="#ffbdb9" stroke-width="3" cx="108.59" cy="-945" rx="49.22" ry="18"/>
<text text-anchor="middle" x="108.59" y="-940.8" font-family="Times,serif" font-size="14.00">getDenier</text>
</g>
<!-- DenierAddress.get -->
<g id="node26" class="node" pointer-events="visible" data-name="DenierAddress.get">

<ellipse fill="#edad56" stroke="#edad56" stroke-width="3" cx="386.61" cy="-343" rx="27" ry="18"/>
<text text-anchor="middle" x="386.61" y="-338.8" font-family="Times,serif" font-size="14.00">get</text>
</g>
<!-- AllowlistV1.getDenier&#45;&gt;DenierAddress.get -->
<g id="edge7" class="edge" data-name="AllowlistV1.getDenier-&gt;DenierAddress.get">

<path fill="none" stroke="white" stroke-width="2" d="M158.15,-941.67C174.25,-938.03 190.71,-931.07 201.18,-918 277.42,-822.71 155.95,-461.08 237.18,-370 263.88,-340.06 311.76,-336.28 345.93,-338.08"/>
<polygon fill="white" stroke="white" stroke-width="2" points="345.47,-341.55 355.7,-338.81 345.99,-334.57 345.47,-341.55"/>
</g>
<!-- AllowlistV1.isAllowed -->
<g id="node5" class="node" pointer-events="visible" data-name="AllowlistV1.isAllowed">

<ellipse fill="#ffbdb9" stroke="#ffbdb9" stroke-width="3" cx="108.59" cy="-621" rx="50.97" ry="18"/>
<text text-anchor="middle" x="108.59" y="-616.8" font-family="Times,serif" font-size="14.00">isAllowed</text>
</g>
<!-- Allowlist.get -->
<g id="node27" class="node" pointer-events="visible" data-name="Allowlist.get">

<ellipse fill="#edad56" stroke="#edad56" stroke-width="3" cx="386.61" cy="-204" rx="27" ry="18"/>
<text text-anchor="middle" x="386.61" y="-199.8" font-family="Times,serif" font-size="14.00">get</text>
</g>
<!-- AllowlistV1.isAllowed&#45;&gt;Allowlist.get -->
<g id="edge8" class="edge" data-name="AllowlistV1.isAllowed-&gt;Allowlist.get">

<path fill="none" stroke="white" stroke-width="2" d="M109.48,-601.94C110.21,-538.33 121.75,-331.68 237.18,-231 266.84,-205.12 312.84,-200.32 345.76,-200.77"/>
<polygon fill="white" stroke="white" stroke-width="2" points="345.41,-204.26 355.52,-201.11 345.65,-197.27 345.41,-204.26"/>
</g>
<!-- AllowlistV1.isDenied -->
<g id="node6" class="node" pointer-events="visible" data-name="AllowlistV1.isDenied">

<ellipse fill="#ffbdb9" stroke="#ffbdb9" stroke-width="3" cx="108.59" cy="-837" rx="45.23" ry="18"/>
<text text-anchor="middle" x="108.59" y="-832.8" font-family="Times,serif" font-size="14.00">isDenied</text>
</g>
<!-- AllowlistV1.isDenied&#45;&gt;Allowlist.get -->
<g id="edge9" class="edge" data-name="AllowlistV1.isDenied-&gt;Allowlist.get">

<path fill="none" stroke="white" stroke-width="2" d="M154.84,-834.4C171.97,-830.99 190.01,-824 201.18,-810 281.54,-709.2 151.54,-327.37 237.18,-231 263.9,-200.92 312,-197.22 346.2,-199.07"/>
<polygon fill="white" stroke="white" stroke-width="2" points="345.74,-202.54 355.98,-199.82 346.28,-195.56 345.74,-202.54"/>
</g>
<!-- AllowlistV1.hasPermission -->
<g id="node7" class="node" pointer-events="visible" data-name="AllowlistV1.hasPermission">

<ellipse fill="#ffbdb9" stroke="#ffbdb9" stroke-width="3" cx="108.59" cy="-783" rx="66.67" ry="18"/>
<text text-anchor="middle" x="108.59" y="-778.8" font-family="Times,serif" font-size="14.00">hasPermission</text>
</g>
<!-- AllowlistV1.hasPermission&#45;&gt;Allowlist.get -->
<g id="edge10" class="edge" data-name="AllowlistV1.hasPermission-&gt;Allowlist.get">

<path fill="none" stroke="white" stroke-width="2" d="M171.47,-775.8C182.9,-771.69 193.6,-765.44 201.18,-756 274.37,-664.8 159.22,-318.17 237.18,-231 263.92,-201.1 311.8,-197.31 345.95,-199.09"/>
<polygon fill="white" stroke="white" stroke-width="2" points="345.49,-202.57 355.72,-199.83 346.01,-195.59 345.49,-202.57"/>
</g>
<!-- AllowlistV1.getPermissions -->
<g id="node8" class="node" pointer-events="visible" data-name="AllowlistV1.getPermissions">

<ellipse fill="#ffbdb9" stroke="#ffbdb9" stroke-width="3" cx="108.59" cy="-729" rx="69.53" ry="18"/>
<text text-anchor="middle" x="108.59" y="-724.8" font-family="Times,serif" font-size="14.00">getPermissions</text>
</g>
<!-- AllowlistV1.getPermissions&#45;&gt;Allowlist.get -->
<g id="edge11" class="edge" data-name="AllowlistV1.getPermissions-&gt;Allowlist.get">

<path fill="none" stroke="white" stroke-width="2" d="M173.29,-721.06C184.01,-716.95 193.98,-710.89 201.18,-702 267.2,-620.39 166.89,-308.97 237.18,-231 264.04,-201.2 311.89,-197.39 346,-199.14"/>
<polygon fill="white" stroke="white" stroke-width="2" points="345.53,-202.62 355.76,-199.86 346.05,-195.64 345.53,-202.62"/>
</g>
<!-- AllowlistV1.onlyAllowed -->
<g id="node9" class="node" pointer-events="visible" data-name="AllowlistV1.onlyAllowed">

<ellipse fill="#ffbdb9" stroke="#ffbdb9" stroke-width="3" cx="108.59" cy="-675" rx="61.42" ry="18"/>
<text text-anchor="middle" x="108.59" y="-670.8" font-family="Times,serif" font-size="14.00">onlyAllowed</text>
</g>
<!-- AllowlistV1.Denied -->
<g id="node17" class="node" pointer-events="visible" data-name="AllowlistV1.Denied">

<ellipse fill="#edad56" stroke="#edad56" stroke-width="3" cx="386.61" cy="-675" rx="38.85" ry="18"/>
<text text-anchor="middle" x="386.61" y="-670.8" font-family="Times,serif" font-size="14.00">Denied</text>
</g>
<!-- AllowlistV1.onlyAllowed&#45;&gt;AllowlistV1.Denied -->
<g id="edge13" class="edge" data-name="AllowlistV1.onlyAllowed-&gt;AllowlistV1.Denied">

<path fill="none" stroke="#1bc6a6" stroke-width="2" d="M171.19,-675C219.92,-675 287.22,-675 333.35,-675"/>
<polygon fill="#1bc6a6" stroke="#1bc6a6" stroke-width="2" points="333.32,-678.5 343.32,-675 333.32,-671.5 333.32,-678.5"/>
</g>
<!-- AllowlistV1.onlyAllowed&#45;&gt;Allowlist.get -->
<g id="edge12" class="edge" data-name="AllowlistV1.onlyAllowed-&gt;Allowlist.get">

<path fill="none" stroke="white" stroke-width="2" d="M168.03,-668.82C180.69,-664.76 192.78,-658.27 201.18,-648 260.03,-575.98 174.56,-299.78 237.18,-231 264.18,-201.33 312.01,-197.5 346.07,-199.21"/>
<polygon fill="white" stroke="white" stroke-width="2" points="345.58,-202.68 355.81,-199.92 346.09,-195.7 345.58,-202.68"/>
</g>
<!-- LibErrors.Unauthorized -->
<g id="node29" class="node" pointer-events="visible" data-name="LibErrors.Unauthorized">

<ellipse fill="#edad56" stroke="#edad56" stroke-width="3" cx="386.61" cy="-119" rx="63.69" ry="18"/>
<text text-anchor="middle" x="386.61" y="-114.8" font-family="Times,serif" font-size="14.00">Unauthorized</text>
</g>
<!-- AllowlistV1.onlyAllowed&#45;&gt;LibErrors.Unauthorized -->
<g id="edge14" class="edge" data-name="AllowlistV1.onlyAllowed-&gt;LibErrors.Unauthorized">

<path fill="none" stroke="white" stroke-width="2" d="M168.11,-668.88C180.77,-664.82 192.84,-658.31 201.18,-648 267.6,-565.86 173.59,-258.36 237.18,-174 255.33,-149.91 285.2,-136.37 313.41,-128.76"/>
<polygon fill="white" stroke="white" stroke-width="2" points="313.95,-132.23 322.84,-126.47 312.29,-125.43 313.95,-132.23"/>
</g>
<!-- AllowlistV1.setAllower -->
<g id="node10" class="node" pointer-events="visible" data-name="AllowlistV1.setAllower">

<ellipse fill="#ffbdb9" stroke="#ffbdb9" stroke-width="3" cx="108.59" cy="-1215" rx="53.32" ry="18"/>
<text text-anchor="middle" x="108.59" y="-1210.8" font-family="Times,serif" font-size="14.00">setAllower</text>
</g>
<!-- AllowlistV1.setAllower&#45;&gt;AllowlistV1.SetAllower -->
<g id="edge16" class="edge" data-name="AllowlistV1.setAllower-&gt;AllowlistV1.SetAllower">

<path fill="none" stroke="#1bc6a6" stroke-width="2" d="M163.14,-1215C207.13,-1215 269.73,-1215 317.32,-1215"/>
<polygon fill="#1bc6a6" stroke="#1bc6a6" stroke-width="2" points="317.29,-1218.5 327.29,-1215 317.29,-1211.5 317.29,-1218.5"/>
</g>
<!-- AllowlistV1.setAllower&#45;&gt;AllowerAddress.set -->
<g id="edge15" class="edge" data-name="AllowlistV1.setAllower-&gt;AllowerAddress.set">

<path fill="none" stroke="white" stroke-width="2" d="M162.02,-1210.77C176.86,-1206.92 191.58,-1200.06 201.18,-1188 283.94,-1084 158.01,-697.76 237.18,-591 262.43,-556.94 311.16,-543.96 345.9,-539.02"/>
<polygon fill="white" stroke="white" stroke-width="2" points="345.94,-542.54 355.44,-537.86 345.09,-535.59 345.94,-542.54"/>
</g>
<!-- AllowlistV1.setDenier -->
<g id="node11" class="node" pointer-events="visible" data-name="AllowlistV1.setDenier">

<ellipse fill="#ffbdb9" stroke="#ffbdb9" stroke-width="3" cx="108.59" cy="-1161" rx="48.08" ry="18"/>
<text text-anchor="middle" x="108.59" y="-1156.8" font-family="Times,serif" font-size="14.00">setDenier</text>
</g>
<!-- AllowlistV1.setDenier&#45;&gt;AllowlistV1.SetDenier -->
<g id="edge18" class="edge" data-name="AllowlistV1.setDenier-&gt;AllowlistV1.SetDenier">

<path fill="none" stroke="#1bc6a6" stroke-width="2" d="M157.98,-1161C203.68,-1161 272.48,-1161 322.48,-1161"/>
<polygon fill="#1bc6a6" stroke="#1bc6a6" stroke-width="2" points="322.38,-1164.5 332.38,-1161 322.38,-1157.5 322.38,-1164.5"/>
</g>
<!-- AllowlistV1.setDenier&#45;&gt;DenierAddress.set -->
<g id="edge17" class="edge" data-name="AllowlistV1.setDenier-&gt;DenierAddress.set">

<path fill="none" stroke="white" stroke-width="2" d="M157.29,-1157.95C173.7,-1154.39 190.59,-1147.4 201.18,-1134 295.23,-1014.89 147.23,-574.24 237.18,-452 262.3,-417.85 311.06,-404.88 345.84,-399.97"/>
<polygon fill="white" stroke="white" stroke-width="2" points="345.89,-403.49 355.4,-398.82 345.05,-396.54 345.89,-403.49"/>
</g>
<!-- AllowlistV1.setAllowPermissions -->
<g id="node12" class="node" pointer-events="visible" data-name="AllowlistV1.setAllowPermissions">

<ellipse fill="#ffbdb9" stroke="#ffbdb9" stroke-width="3" cx="108.59" cy="-1053" rx="92.68" ry="18"/>
<text text-anchor="middle" x="108.59" y="-1048.8" font-family="Times,serif" font-size="14.00">setAllowPermissions</text>
</g>
<!-- AllowlistV1.InvalidCount -->
<g id="node18" class="node" pointer-events="visible" data-name="AllowlistV1.InvalidCount">

<ellipse fill="#edad56" stroke="#edad56" stroke-width="3" cx="386.61" cy="-945" rx="62" ry="18"/>
<text text-anchor="middle" x="386.61" y="-940.8" font-family="Times,serif" font-size="14.00">InvalidCount</text>
</g>
<!-- AllowlistV1.setAllowPermissions&#45;&gt;AllowlistV1.InvalidCount -->
<g id="edge21" class="edge" data-name="AllowlistV1.setAllowPermissions-&gt;AllowlistV1.InvalidCount">

<path fill="none" stroke="#1bc6a6" stroke-width="2" d="M175.78,-1039.58C184.81,-1036.05 193.57,-1031.6 201.18,-1026 224.4,-1008.9 213.07,-987.84 237.18,-972 258.71,-957.85 285.6,-950.59 310.56,-947.01"/>
<polygon fill="#1bc6a6" stroke="#1bc6a6" stroke-width="2" points="310.89,-950.5 320.4,-945.82 310.05,-943.55 310.89,-950.5"/>
</g>
<!-- AllowlistV1.MismatchedArrayLengths -->
<g id="node19" class="node" pointer-events="visible" data-name="AllowlistV1.MismatchedArrayLengths">

<ellipse fill="#edad56" stroke="#edad56" stroke-width="3" cx="386.61" cy="-999" rx="112.31" ry="18"/>
<text text-anchor="middle" x="386.61" y="-994.8" font-family="Times,serif" font-size="14.00">MismatchedArrayLengths</text>
</g>
<!-- AllowlistV1.setAllowPermissions&#45;&gt;AllowlistV1.MismatchedArrayLengths -->
<g id="edge22" class="edge" data-name="AllowlistV1.setAllowPermissions-&gt;AllowlistV1.MismatchedArrayLengths">

<path fill="none" stroke="#1bc6a6" stroke-width="2" d="M173.77,-1039.04C194.03,-1034.74 216.52,-1030.06 237.18,-1026 255.64,-1022.37 275.43,-1018.65 294.35,-1015.18"/>
<polygon fill="#1bc6a6" stroke="#1bc6a6" stroke-width="2" points="294.77,-1018.66 303.98,-1013.42 293.51,-1011.77 294.77,-1018.66"/>
</g>
<!-- AllowlistV1.AttemptToRemoveDenyPermission -->
<g id="node20" class="node" pointer-events="visible" data-name="AllowlistV1.AttemptToRemoveDenyPermission">

<ellipse fill="#edad56" stroke="#edad56" stroke-width="3" cx="386.61" cy="-1107" rx="149.37" ry="18"/>
<text text-anchor="middle" x="386.61" y="-1102.8" font-family="Times,serif" font-size="14.00">AttemptToRemoveDenyPermission</text>
</g>
<!-- AllowlistV1.setAllowPermissions&#45;&gt;AllowlistV1.AttemptToRemoveDenyPermission -->
<g id="edge25" class="edge" data-name="AllowlistV1.setAllowPermissions-&gt;AllowlistV1.AttemptToRemoveDenyPermission">

<path fill="none" stroke="#1bc6a6" stroke-width="2" d="M173.77,-1066.96C194.03,-1071.26 216.52,-1075.94 237.18,-1080 252.49,-1083.01 268.71,-1086.08 284.59,-1089.03"/>
<polygon fill="#1bc6a6" stroke="#1bc6a6" stroke-width="2" points="283.79,-1092.44 294.25,-1090.8 285.05,-1085.55 283.79,-1092.44"/>
</g>
<!-- AllowlistV1.AttemptToSetDenyPermission -->
<g id="node21" class="node" pointer-events="visible" data-name="AllowlistV1.AttemptToSetDenyPermission">

<ellipse fill="#edad56" stroke="#edad56" stroke-width="3" cx="386.61" cy="-1053" rx="129.69" ry="18"/>
<text text-anchor="middle" x="386.61" y="-1048.8" font-family="Times,serif" font-size="14.00">AttemptToSetDenyPermission</text>
</g>
<!-- AllowlistV1.setAllowPermissions&#45;&gt;AllowlistV1.AttemptToSetDenyPermission -->
<g id="edge26" class="edge" data-name="AllowlistV1.setAllowPermissions-&gt;AllowlistV1.AttemptToSetDenyPermission">

<path fill="none" stroke="#1bc6a6" stroke-width="2" d="M202.65,-1053C215.58,-1053 229.1,-1053 242.68,-1053"/>
<polygon fill="#1bc6a6" stroke="#1bc6a6" stroke-width="2" points="242.68,-1056.5 252.68,-1053 242.68,-1049.5 242.68,-1056.5"/>
</g>
<!-- AllowlistV1.SetAllowlistPermissions -->
<g id="node22" class="node" pointer-events="visible" data-name="AllowlistV1.SetAllowlistPermissions">

<ellipse fill="#edad56" stroke="#edad56" stroke-width="3" cx="386.61" cy="-891" rx="106.01" ry="18"/>
<text text-anchor="middle" x="386.61" y="-886.8" font-family="Times,serif" font-size="14.00">SetAllowlistPermissions</text>
</g>
<!-- AllowlistV1.setAllowPermissions&#45;&gt;AllowlistV1.SetAllowlistPermissions -->
<g id="edge28" class="edge" data-name="AllowlistV1.setAllowPermissions-&gt;AllowlistV1.SetAllowlistPermissions">

<path fill="none" stroke="#1bc6a6" stroke-width="2" d="M179.56,-1040.3C187.51,-1036.66 194.97,-1031.99 201.18,-1026 237.57,-990.86 198.95,-951.15 237.18,-918 246.67,-909.76 257.83,-903.66 269.68,-899.19"/>
<polygon fill="#1bc6a6" stroke="#1bc6a6" stroke-width="2" points="270.45,-902.63 278.86,-896.19 268.27,-895.97 270.45,-902.63"/>
</g>
<!-- AllowlistV1.setAllowPermissions&#45;&gt;AllowerAddress.get -->
<g id="edge19" class="edge" data-name="AllowlistV1.setAllowPermissions-&gt;AllowerAddress.get">

<path fill="none" stroke="white" stroke-width="2" d="M182.41,-1041.01C189.59,-1037.23 196.09,-1032.33 201.18,-1026 273.31,-936.22 160.36,-594.8 237.18,-509 263.94,-479.11 311.81,-475.32 345.95,-477.1"/>
<polygon fill="white" stroke="white" stroke-width="2" points="345.49,-480.58 355.73,-477.83 346.01,-473.6 345.49,-480.58"/>
</g>
<!-- AllowlistV1.setAllowPermissions&#45;&gt;Allowlist.get -->
<g id="edge24" class="edge" data-name="AllowlistV1.setAllowPermissions-&gt;Allowlist.get">

<path fill="none" stroke="white" stroke-width="2" d="M182.57,-1041.13C189.72,-1037.33 196.17,-1032.39 201.18,-1026 255.72,-956.4 179,-297.59 237.18,-231 263.65,-200.7 311.79,-197.04 346.07,-198.96"/>
<polygon fill="white" stroke="white" stroke-width="2" points="345.65,-202.44 355.89,-199.73 346.2,-195.46 345.65,-202.44"/>
</g>
<!-- Allowlist.set -->
<g id="node28" class="node" pointer-events="visible" data-name="Allowlist.set">

<ellipse fill="#edad56" stroke="#edad56" stroke-width="3" cx="386.61" cy="-258" rx="27" ry="18"/>
<text text-anchor="middle" x="386.61" y="-253.8" font-family="Times,serif" font-size="14.00">set</text>
</g>
<!-- AllowlistV1.setAllowPermissions&#45;&gt;Allowlist.set -->
<g id="edge27" class="edge" data-name="AllowlistV1.setAllowPermissions-&gt;Allowlist.set">

<path fill="none" stroke="white" stroke-width="2" d="M182.53,-1041.1C189.69,-1037.31 196.15,-1032.38 201.18,-1026 299.35,-901.38 143.3,-440.89 237.18,-313 262.27,-278.82 311.03,-265.86 345.82,-260.96"/>
<polygon fill="white" stroke="white" stroke-width="2" points="345.87,-264.48 355.38,-259.81 345.04,-257.53 345.87,-264.48"/>
</g>
<!-- AllowlistV1.setAllowPermissions&#45;&gt;LibErrors.Unauthorized -->
<g id="edge20" class="edge" data-name="AllowlistV1.setAllowPermissions-&gt;LibErrors.Unauthorized">

<path fill="none" stroke="white" stroke-width="2" d="M182.59,-1041.14C189.73,-1037.34 196.17,-1032.4 201.18,-1026 259.51,-951.33 181.42,-250.61 237.18,-174 254.92,-149.61 284.74,-136.02 313.01,-128.46"/>
<polygon fill="white" stroke="white" stroke-width="2" points="313.57,-131.93 322.47,-126.19 311.93,-125.12 313.57,-131.93"/>
</g>
<!-- LibSanitize._notZeroAddress -->
<g id="node30" class="node" pointer-events="visible" data-name="LibSanitize._notZeroAddress">

<ellipse fill="#edad56" stroke="#edad56" stroke-width="3" cx="386.61" cy="-34" rx="78.17" ry="18"/>
<text text-anchor="middle" x="386.61" y="-29.8" font-family="Times,serif" font-size="14.00">_notZeroAddress</text>
</g>
<!-- AllowlistV1.setAllowPermissions&#45;&gt;LibSanitize._notZeroAddress -->
<g id="edge23" class="edge" data-name="AllowlistV1.setAllowPermissions-&gt;LibSanitize._notZeroAddress">

<path fill="none" stroke="white" stroke-width="2" d="M182.61,-1041.16C189.75,-1037.36 196.19,-1032.41 201.18,-1026 265.16,-943.77 176.03,-173.36 237.18,-89 252.84,-67.39 277.98,-54.26 303.15,-46.29"/>
<polygon fill="white" stroke="white" stroke-width="2" points="303.9,-49.71 312.56,-43.6 301.98,-42.98 303.9,-49.71"/>
</g>
<!-- AllowlistV1.setDenyPermissions -->
<g id="node13" class="node" pointer-events="visible" data-name="AllowlistV1.setDenyPermissions">

<ellipse fill="#ffbdb9" stroke="#ffbdb9" stroke-width="3" cx="108.59" cy="-891" rx="89.23" ry="18"/>
<text text-anchor="middle" x="108.59" y="-886.8" font-family="Times,serif" font-size="14.00">setDenyPermissions</text>
</g>
<!-- AllowlistV1.setDenyPermissions&#45;&gt;AllowlistV1.InvalidCount -->
<g id="edge31" class="edge" data-name="AllowlistV1.setDenyPermissions-&gt;AllowlistV1.InvalidCount">

<path fill="none" stroke="#1bc6a6" stroke-width="2" d="M172.79,-904.75C193.3,-909.11 216.18,-913.87 237.18,-918 263.78,-923.23 293.14,-928.65 318.67,-933.24"/>
<polygon fill="#1bc6a6" stroke="#1bc6a6" stroke-width="2" points="317.81,-936.65 328.28,-934.96 319.05,-929.76 317.81,-936.65"/>
</g>
<!-- AllowlistV1.setDenyPermissions&#45;&gt;AllowlistV1.MismatchedArrayLengths -->
<g id="edge32" class="edge" data-name="AllowlistV1.setDenyPermissions-&gt;AllowlistV1.MismatchedArrayLengths">

<path fill="none" stroke="#1bc6a6" stroke-width="2" d="M174.83,-904.06C184.19,-907.64 193.3,-912.2 201.18,-918 224.4,-935.1 213.07,-956.16 237.18,-972 247.25,-978.62 258.5,-983.73 270.17,-987.66"/>
<polygon fill="#1bc6a6" stroke="#1bc6a6" stroke-width="2" points="268.98,-990.96 279.56,-990.48 270.99,-984.25 268.98,-990.96"/>
</g>
<!-- AllowlistV1.setDenyPermissions&#45;&gt;AllowlistV1.SetAllowlistPermissions --><g id="edge34" class="edge" data-name="AllowlistV1.setDenyPermissions-&gt;Allowlist.set" data-comment="AllowlistV1.setDenyPermissions-&gt;AllowlistV1.SetAllowlistPermissions">

<path fill="none" stroke="white" stroke-width="2" d="M167.71,-876.38C180.54,-872.04 192.79,-865.49 201.18,-855 277.82,-759.18 163.84,-402.38 237.18,-304 262.55,-269.96 311.36,-256.97 346.07,-254.01"/>
<polygon fill="white" stroke="white" stroke-width="2" points="346.24,-257.5 356.04,-253.49 345.87,-250.51 346.24,-257.5"/>
</g>
<g id="edge36" class="edge" data-name="AllowlistV1.setDenyPermissions-&gt;AllowlistV1.SetAllowlistPermissions">

<path fill="none" stroke="#1bc6a6" stroke-width="2" d="M199.2,-891C220.62,-891 243.82,-891 266.34,-891"/>
<polygon fill="#1bc6a6" stroke="#1bc6a6" stroke-width="2" points="266.1,-894.5 276.1,-891 266.1,-887.5 266.1,-894.5"/>
</g>
<!-- AllowlistV1.setDenyPermissions&#45;&gt;DenierAddress.get -->
<g id="edge29" class="edge" data-name="AllowlistV1.setDenyPermissions-&gt;DenierAddress.get">

<path fill="none" stroke="white" stroke-width="2" d="M181.51,-879.45C189.04,-875.61 195.87,-870.58 201.18,-864 270.25,-778.3 163.63,-451.89 237.18,-370 263.98,-340.15 311.85,-336.36 345.98,-338.12"/>
<polygon fill="white" stroke="white" stroke-width="2" points="345.51,-341.6 355.74,-338.85 346.03,-334.62 345.51,-341.6"/>
</g>
<!-- AllowlistV1.setDenyPermissions&#45;&gt;Allowlist.set -->

<!-- AllowlistV1.setDenyPermissions&#45;&gt;Allowlist.set -->
<g id="edge35" class="edge" data-name="AllowlistV1.setDenyPermissions-&gt;Allowlist.set">

<path fill="none" stroke="white" stroke-width="2" d="M190.83,-882.8C194.67,-880 198.17,-876.75 201.18,-873 277.82,-777.18 163.84,-420.38 237.18,-322 262.95,-287.42 312.92,-274.57 347.72,-267.72" style=""/>
<polygon fill="white" stroke="white" stroke-width="2" points="348.08,-271.22 357.26,-265.93 346.78,-264.34 348.08,-271.22"/>
</g>
<!-- AllowlistV1.setDenyPermissions&#45;&gt;LibErrors.Unauthorized -->
<g id="edge30" class="edge" data-name="AllowlistV1.setDenyPermissions-&gt;LibErrors.Unauthorized">

<path fill="none" stroke="white" stroke-width="2" d="M181.64,-879.55C189.15,-875.7 195.94,-870.64 201.18,-864 296.3,-743.47 146.22,-297.7 237.18,-174 255.04,-149.7 284.88,-136.13 313.13,-128.55"/>
<polygon fill="white" stroke="white" stroke-width="2" points="313.68,-132.02 322.58,-126.27 312.04,-125.21 313.68,-132.02"/>
</g>
<!-- AllowlistV1.setDenyPermissions&#45;&gt;LibSanitize._notZeroAddress -->
<g id="edge33" class="edge" data-name="AllowlistV1.setDenyPermissions-&gt;LibSanitize._notZeroAddress">

<path fill="none" stroke="white" stroke-width="2" d="M181.68,-879.58C189.18,-875.72 195.96,-870.65 201.18,-864 254.39,-796.18 186.31,-158.6 237.18,-89 252.99,-67.36 278.31,-54.22 303.58,-46.26"/>
<polygon fill="white" stroke="white" stroke-width="2" points="304.37,-49.67 313.03,-43.57 302.46,-42.94 304.37,-49.67"/>
</g>
<!-- key -->
<g id="edge37" class="edge" data-name="key-&gt;key2" data-comment="key">

<path fill="none" stroke="rgb(27, 198, 166)" stroke-width="2" d="M166.59,-1410C254.11,-1410 279.19,-1410 360.61,-1410"/>
<polygon fill="#1bc6a6" stroke="#1bc6a6" stroke-width="2" points="360.58,-1413.5 370.58,-1410 360.58,-1406.5 360.58,-1413.5"/>
</g>
<g id="node31" class="node" pointer-events="visible" data-name="key">

<polygon fill="#edad56" stroke="none" stroke-width="3" points="173.59,-1424 43.59,-1424 43.59,-1336 173.59,-1336 173.59,-1424"/>
<text text-anchor="start" x="93.23" y="-1405.4" font-family="Times,serif" font-size="14.00">Internal Call</text>
<text text-anchor="start" x="89.34" y="-1385.4" font-family="Times,serif" font-size="14.00">External Call</text>
<text text-anchor="start" x="66.79" y="-1365.4" font-family="Times,serif" font-size="14.00">Defined Contract</text>
<text text-anchor="start" x="53.19" y="-1345.4" font-family="Times,serif" font-size="14.00">Undefined Contract</text>
</g>
<!-- key2 -->
<g id="node32" class="node" pointer-events="visible" data-name="key2">

<polygon fill="#edad56" stroke="none" stroke-width="3" points="413.61,-1424 359.61,-1424 359.61,-1336 413.61,-1336 413.61,-1424"/>
<text text-anchor="start" x="376.61" y="-1405.4" font-family="Times,serif" font-size="14.00">   </text>
<text text-anchor="start" x="376.61" y="-1385.4" font-family="Times,serif" font-size="14.00">   </text>
<polygon fill="#445773" stroke="none" points="374.61,-1360 374.61,-1380 399.61,-1380 399.61,-1360 374.61,-1360"/>
<text text-anchor="start" x="376.61" y="-1365.4" font-family="Times,serif" font-size="14.00">   </text>
<polygon fill="none" stroke="#e8726d" points="376.61,-1342 376.61,-1358 397.61,-1358 397.61,-1342 376.61,-1342"/>
</g>
<!-- key&#45;&gt;key2 -->
<!-- key&#45;&gt;key2 -->
<g id="edge38" class="edge" data-name="key-&gt;key2">

<path fill="none" stroke="white" stroke-width="2" d="M166.59,-1390C254.11,-1390 279.19,-1390 360.61,-1390" style=""/>
<polygon fill="white" stroke="white" stroke-width="2" points="360.58,-1393.5 370.58,-1390 360.58,-1386.5 360.58,-1393.5"/>
</g>
</g>
</svg>