<?xml version="1.0" standalone="no"?>
<svg xmlns="http://www.w3.org/2000/svg" xmlns:xlink="http://www.w3.org/1999/xlink" width="900pt" height="1240pt" viewBox="0.00 0.00 900.18 1240.00">
<g id="graph0" class="graph" transform="translate(131.26505809084583,1009.3254055685051) scale(0.6639821250197478)" data-name="G">

<polygon fill="#2e3e56" stroke="none" points="-4,4 -4,-1236 896.18,-1236 896.18,4 -4,4" style=""/>
<g id="clust1" class="cluster" data-name="clusterConsensusLayerDepositManagerV1">

<path fill="#445773" stroke="#445773" d="M20,-524C20,-524 872.18,-524 872.18,-524 878.18,-524 884.18,-530 884.18,-536 884.18,-536 884.18,-1075 884.18,-1075 884.18,-1081 878.18,-1087 872.18,-1087 872.18,-1087 20,-1087 20,-1087 14,-1087 8,-1081 8,-1075 8,-1075 8,-536 8,-536 8,-530 14,-524 20,-524" style=""/>
<text text-anchor="middle" x="446.09" y="-1070.4" font-family="Times,serif" font-size="14.00" fill="#f0f0f0" style="">ConsensusLayerDepositManagerV1</text>
</g>
<g id="clust2" class="cluster" data-name="clusterDepositContractAddress">

<path fill="#3b4b63" stroke="#e8726d" stroke-dasharray="5,2" d="M709.95,-215C709.95,-215 838.95,-215 838.95,-215 844.95,-215 850.95,-221 850.95,-227 850.95,-227 850.95,-334 850.95,-334 850.95,-340 844.95,-346 838.95,-346 838.95,-346 709.95,-346 709.95,-346 703.95,-346 697.95,-340 697.95,-334 697.95,-334 697.95,-227 697.95,-227 697.95,-221 703.95,-215 709.95,-215" style=""/>
<text text-anchor="middle" x="774.45" y="-329.4" font-family="Times,serif" font-size="14.00" fill="#f0f0f0" style="">DepositContractAddress</text>
</g>
<g id="clust3" class="cluster" data-name="clusterWithdrawalCredentials">

<path fill="#3b4b63" stroke="#e8726d" stroke-dasharray="5,2" d="M447.77,-317C447.77,-317 568.77,-317 568.77,-317 574.77,-317 580.77,-323 580.77,-329 580.77,-329 580.77,-436 580.77,-436 580.77,-442 574.77,-448 568.77,-448 568.77,-448 447.77,-448 447.77,-448 441.77,-448 435.77,-442 435.77,-436 435.77,-436 435.77,-329 435.77,-329 435.77,-323 441.77,-317 447.77,-317" style=""/>
<text text-anchor="middle" x="508.27" y="-431.4" font-family="Times,serif" font-size="14.00" fill="#f0f0f0" style="">WithdrawalCredentials</text>
</g>
<g id="clust4" class="cluster" data-name="clusterCommittedBalance">

<path fill="#3b4b63" stroke="#e8726d" stroke-dasharray="5,2" d="M457.77,-232C457.77,-232 557.77,-232 557.77,-232 563.77,-232 569.77,-238 569.77,-244 569.77,-244 569.77,-297 569.77,-297 569.77,-303 563.77,-309 557.77,-309 557.77,-309 457.77,-309 457.77,-309 451.77,-309 445.77,-303 445.77,-297 445.77,-297 445.77,-244 445.77,-244 445.77,-238 451.77,-232 457.77,-232" style=""/>
<text text-anchor="middle" x="507.77" y="-292.4" font-family="Times,serif" font-size="14.00" fill="#f0f0f0" style="">CommittedBalance</text>
</g>
<g id="clust5" class="cluster" data-name="clusterBalanceToDeposit">

<path fill="#3b4b63" stroke="#e8726d" stroke-dasharray="5,2" d="M459.77,-147C459.77,-147 555.77,-147 555.77,-147 561.77,-147 567.77,-153 567.77,-159 567.77,-159 567.77,-212 567.77,-212 567.77,-218 561.77,-224 555.77,-224 555.77,-224 459.77,-224 459.77,-224 453.77,-224 447.77,-218 447.77,-212 447.77,-212 447.77,-159 447.77,-159 447.77,-153 453.77,-147 459.77,-147" style=""/>
<text text-anchor="middle" x="507.77" y="-207.4" font-family="Times,serif" font-size="14.00" fill="#f0f0f0" style="">BalanceToDeposit</text>
</g>
<g id="clust6" class="cluster" data-name="clusterDepositedValidatorCount">

<path fill="#3b4b63" stroke="#e8726d" stroke-dasharray="5,2" d="M440.77,-8C440.77,-8 575.77,-8 575.77,-8 581.77,-8 587.77,-14 587.77,-20 587.77,-20 587.77,-127 587.77,-127 587.77,-133 581.77,-139 575.77,-139 575.77,-139 440.77,-139 440.77,-139 434.77,-139 428.77,-133 428.77,-127 428.77,-127 428.77,-20 428.77,-20 428.77,-14 434.77,-8 440.77,-8" style=""/>
<text text-anchor="middle" x="508.27" y="-122.4" font-family="Times,serif" font-size="14.00" fill="#f0f0f0" style="">DepositedValidatorCount</text>
</g>
<g id="clust7" class="cluster" data-name="clusterLibUint256">

<path fill="#3b4b63" stroke="#e8726d" stroke-dasharray="5,2" d="M701.47,-76C701.47,-76 846.42,-76 846.42,-76 852.42,-76 858.42,-82 858.42,-88 858.42,-88 858.42,-195 858.42,-195 858.42,-201 852.42,-207 846.42,-207 846.42,-207 701.47,-207 701.47,-207 695.47,-207 689.47,-201 689.47,-195 689.47,-195 689.47,-88 689.47,-88 689.47,-82 695.47,-76 701.47,-76" style=""/>
<text text-anchor="middle" x="773.95" y="-190.4" font-family="Times,serif" font-size="14.00" fill="#f0f0f0" style="">LibUint256</text>
</g>
<g id="clust8" class="cluster" data-name="clusterbytes">

<path fill="#3b4b63" stroke="#e8726d" stroke-dasharray="5,2" d="M741.71,-439C741.71,-439 806.18,-439 806.18,-439 812.18,-439 818.18,-445 818.18,-451 818.18,-451 818.18,-504 818.18,-504 818.18,-510 812.18,-516 806.18,-516 806.18,-516 741.71,-516 741.71,-516 735.71,-516 729.71,-510 729.71,-504 729.71,-504 729.71,-451 729.71,-451 729.71,-445 735.71,-439 741.71,-439" style=""/>
<text text-anchor="middle" x="773.95" y="-499.4" font-family="Times,serif" font-size="14.00" fill="#f0f0f0" style="">bytes</text>
</g>
<g id="clust9" class="cluster" data-name="clusterLibBytes">

<path fill="#3b4b63" stroke="#e8726d" stroke-dasharray="5,2" d="M749.22,-354C749.22,-354 798.68,-354 798.68,-354 804.68,-354 810.68,-360 810.68,-366 810.68,-366 810.68,-419 810.68,-419 810.68,-425 804.68,-431 798.68,-431 798.68,-431 749.22,-431 749.22,-431 743.22,-431 737.22,-425 737.22,-419 737.22,-419 737.22,-366 737.22,-366 737.22,-360 743.22,-354 749.22,-354" style=""/>
<text text-anchor="middle" x="773.95" y="-414.4" font-family="Times,serif" font-size="14.00" fill="#f0f0f0" style="">LibBytes</text>
</g>
<g id="clust10" class="cluster" data-name="cluster_01">

<polygon fill="#2e3e56" stroke="black" points="106.91,-1095 106.91,-1224 542.77,-1224 542.77,-1095 106.91,-1095" style=""/>
<text text-anchor="middle" x="324.84" y="-1207.4" font-family="Times,serif" font-size="14.00" style="">Legend</text>
</g>
<!-- ConsensusLayerDepositManagerV1._getRiverAdmin -->
<g id="node1" class="node" pointer-events="visible" data-name="ConsensusLayerDepositManagerV1._getRiverAdmin">

<ellipse fill="#f2c383" stroke="#f2c383" stroke-width="3" cx="179.91" cy="-995" rx="75.89" ry="18" style=""/>
<text text-anchor="middle" x="179.91" y="-990.8" font-family="Times,serif" font-size="14.00" style="">_getRiverAdmin</text>
</g>
<!-- ConsensusLayerDepositManagerV1._setCommittedBalance -->
<g id="node2" class="node" pointer-events="visible" data-name="ConsensusLayerDepositManagerV1._setCommittedBalance">

<ellipse fill="#edad56" stroke="#edad56" stroke-width="3" cx="507.77" cy="-766" rx="101.29" ry="18" style=""/>
<text text-anchor="middle" x="507.77" y="-761.8" font-family="Times,serif" font-size="14.00" style="">_setCommittedBalance</text>
</g>
<!-- ConsensusLayerDepositManagerV1._getNextValidators -->
<g id="node3" class="node" pointer-events="visible" data-name="ConsensusLayerDepositManagerV1._getNextValidators">

<ellipse fill="#edad56" stroke="#edad56" stroke-width="3" cx="507.77" cy="-820" rx="86.82" ry="18" style=""/>
<text text-anchor="middle" x="507.77" y="-815.8" font-family="Times,serif" font-size="14.00" style="">_getNextValidators</text>
</g>
<!-- ConsensusLayerDepositManagerV1.initConsensusLayerDepositManagerV1 -->
<g id="node4" class="node" pointer-events="visible" data-name="ConsensusLayerDepositManagerV1.initConsensusLayerDepositManagerV1">

<ellipse fill="#f2c383" stroke="#f2c383" stroke-width="3" cx="179.91" cy="-901" rx="163.81" ry="18" style=""/>
<text text-anchor="middle" x="179.91" y="-896.8" font-family="Times,serif" font-size="14.00" style="">initConsensusLayerDepositManagerV1</text>
</g>
<!-- ConsensusLayerDepositManagerV1.SetDepositContractAddress -->
<g id="node11" class="node" pointer-events="visible" data-name="ConsensusLayerDepositManagerV1.SetDepositContractAddress">

<ellipse fill="#edad56" stroke="#edad56" stroke-width="3" cx="507.77" cy="-982" rx="118.14" ry="18" style=""/>
<text text-anchor="middle" x="507.77" y="-977.8" font-family="Times,serif" font-size="14.00" style="">SetDepositContractAddress</text>
</g>
<!-- ConsensusLayerDepositManagerV1.initConsensusLayerDepositManagerV1&#45;&gt;ConsensusLayerDepositManagerV1.SetDepositContractAddress -->
<g id="edge2" class="edge" data-name="ConsensusLayerDepositManagerV1.initConsensusLayerDepositManagerV1-&gt;ConsensusLayerDepositManagerV1.SetDepositContractAddress">

<path fill="none" stroke="#1bc6a6" stroke-width="2" d="M243.39,-918.92C282.46,-929.89 333.9,-943.9 379.81,-955 392.68,-958.11 406.32,-961.22 419.71,-964.15" style=""/>
<polygon fill="#1bc6a6" stroke="#1bc6a6" stroke-width="2" points="418.96,-967.57 429.47,-966.27 420.44,-960.73 418.96,-967.57" style=""/>
</g>
<!-- ConsensusLayerDepositManagerV1.SetWithdrawalCredentials -->
<g id="node12" class="node" pointer-events="visible" data-name="ConsensusLayerDepositManagerV1.SetWithdrawalCredentials">

<ellipse fill="#edad56" stroke="#edad56" stroke-width="3" cx="507.77" cy="-1036" rx="112.88" ry="18" style=""/>
<text text-anchor="middle" x="507.77" y="-1031.8" font-family="Times,serif" font-size="14.00" style="">SetWithdrawalCredentials</text>
</g>
<!-- ConsensusLayerDepositManagerV1.initConsensusLayerDepositManagerV1&#45;&gt;ConsensusLayerDepositManagerV1.SetWithdrawalCredentials -->
<g id="edge4" class="edge" data-name="ConsensusLayerDepositManagerV1.initConsensusLayerDepositManagerV1-&gt;ConsensusLayerDepositManagerV1.SetWithdrawalCredentials">

<path fill="none" stroke="#1bc6a6" stroke-width="2" d="M242.74,-918.89C274.72,-929.95 313.33,-946.23 343.81,-968 363.55,-982.09 358.89,-996.74 379.81,-1009 387.48,-1013.49 395.79,-1017.24 404.38,-1020.36" style=""/>
<polygon fill="#1bc6a6" stroke="#1bc6a6" stroke-width="2" points="403.18,-1023.66 413.77,-1023.44 405.36,-1017 403.18,-1023.66" style=""/>
</g>
<!-- DepositContractAddress.set -->
<g id="node22" class="node" pointer-events="visible" data-name="DepositContractAddress.set">

<ellipse fill="#edad56" stroke="#edad56" stroke-width="3" cx="773.95" cy="-241" rx="27" ry="18" style=""/>
<text text-anchor="middle" x="773.95" y="-236.8" font-family="Times,serif" font-size="14.00" style="">set</text>
</g>
<!-- ConsensusLayerDepositManagerV1.initConsensusLayerDepositManagerV1&#45;&gt;DepositContractAddress.set -->
<g id="edge1" class="edge" data-name="ConsensusLayerDepositManagerV1.initConsensusLayerDepositManagerV1-&gt;DepositContractAddress.set">

<path fill="none" stroke="white" stroke-width="2" d="M228.82,-882.46C266.55,-865.22 317.09,-835.72 343.81,-793 408.01,-690.36 295.67,-610.04 379.81,-523 459.97,-440.08 554.1,-561.48 635.72,-480 703.36,-412.48 607.33,-338.63 671.72,-268 687.07,-251.16 711.64,-244.34 732.73,-241.76" style=""/>
<polygon fill="white" stroke="white" stroke-width="2" points="732.95,-245.25 742.61,-240.89 732.34,-238.28 732.95,-245.25" style=""/>
</g>
<!-- WithdrawalCredentials.set -->
<g id="node24" class="node" pointer-events="visible" data-name="WithdrawalCredentials.set">

<ellipse fill="#edad56" stroke="#edad56" stroke-width="3" cx="507.77" cy="-397" rx="27" ry="18" style=""/>
<text text-anchor="middle" x="507.77" y="-392.8" font-family="Times,serif" font-size="14.00" style="">set</text>
</g>
<!-- ConsensusLayerDepositManagerV1.initConsensusLayerDepositManagerV1&#45;&gt;WithdrawalCredentials.set -->
<g id="edge3" class="edge" data-name="ConsensusLayerDepositManagerV1.initConsensusLayerDepositManagerV1-&gt;WithdrawalCredentials.set">

<path fill="none" stroke="white" stroke-width="2" d="M228.99,-882.56C266.81,-865.38 317.4,-835.91 343.81,-793 414.91,-677.51 311.44,-607.12 379.81,-490 400.88,-453.92 442.08,-427.76 471.84,-412.54" style=""/>
<polygon fill="white" stroke="white" stroke-width="2" points="473.25,-415.75 480.69,-408.21 470.17,-409.46 473.25,-415.75" style=""/>
</g>
<!-- ConsensusLayerDepositManagerV1.getCommittedBalance -->
<g id="node5" class="node" pointer-events="visible" data-name="ConsensusLayerDepositManagerV1.getCommittedBalance">

<ellipse fill="#ffbdb9" stroke="#ffbdb9" stroke-width="3" cx="179.91" cy="-658" rx="97.28" ry="18" style=""/>
<text text-anchor="middle" x="179.91" y="-653.8" font-family="Times,serif" font-size="14.00" style="">getCommittedBalance</text>
</g>
<!-- CommittedBalance.get -->
<g id="node26" class="node" pointer-events="visible" data-name="CommittedBalance.get">

<ellipse fill="#edad56" stroke="#edad56" stroke-width="3" cx="507.77" cy="-258" rx="27" ry="18" style=""/>
<text text-anchor="middle" x="507.77" y="-253.8" font-family="Times,serif" font-size="14.00" style="">get</text>
</g>
<!-- ConsensusLayerDepositManagerV1.getCommittedBalance&#45;&gt;CommittedBalance.get -->
<g id="edge5" class="edge" data-name="ConsensusLayerDepositManagerV1.getCommittedBalance-&gt;CommittedBalance.get">

<path fill="none" stroke="white" stroke-width="2" d="M276.43,-662.08C301.48,-658.3 326.34,-649.4 343.81,-631 441.77,-527.87 295.17,-427.31 379.81,-313 400.45,-285.13 438.19,-271.2 467.18,-264.35" style=""/>
<polygon fill="white" stroke="white" stroke-width="2" points="467.77,-267.81 476.83,-262.31 466.32,-260.96 467.77,-267.81" style=""/>
</g>
<!-- ConsensusLayerDepositManagerV1.getBalanceToDeposit -->
<g id="node6" class="node" pointer-events="visible" data-name="ConsensusLayerDepositManagerV1.getBalanceToDeposit">

<ellipse fill="#ffbdb9" stroke="#ffbdb9" stroke-width="3" cx="179.91" cy="-604" rx="94.9" ry="18" style=""/>
<text text-anchor="middle" x="179.91" y="-599.8" font-family="Times,serif" font-size="14.00" style="">getBalanceToDeposit</text>
</g>
<!-- BalanceToDeposit.get -->
<g id="node27" class="node" pointer-events="visible" data-name="BalanceToDeposit.get">

<ellipse fill="#edad56" stroke="#edad56" stroke-width="3" cx="507.77" cy="-173" rx="27" ry="18" style=""/>
<text text-anchor="middle" x="507.77" y="-168.8" font-family="Times,serif" font-size="14.00" style="">get</text>
</g>
<!-- ConsensusLayerDepositManagerV1.getBalanceToDeposit&#45;&gt;BalanceToDeposit.get -->
<g id="edge6" class="edge" data-name="ConsensusLayerDepositManagerV1.getBalanceToDeposit-&gt;BalanceToDeposit.get">

<path fill="none" stroke="white" stroke-width="2" d="M273.57,-608.61C299.62,-605.1 325.75,-596.21 343.81,-577 397.22,-520.2 333.73,-290.89 379.81,-228 400.37,-199.94 438.3,-186.03 467.36,-179.23" style=""/>
<polygon fill="white" stroke="white" stroke-width="2" points="467.97,-182.68 477.04,-177.21 466.53,-175.83 467.97,-182.68" style=""/>
</g>
<!-- ConsensusLayerDepositManagerV1.getWithdrawalCredentials -->
<g id="node7" class="node" pointer-events="visible" data-name="ConsensusLayerDepositManagerV1.getWithdrawalCredentials">

<ellipse fill="#ffbdb9" stroke="#ffbdb9" stroke-width="3" cx="179.91" cy="-712" rx="112.29" ry="18" style=""/>
<text text-anchor="middle" x="179.91" y="-707.8" font-family="Times,serif" font-size="14.00" style="">getWithdrawalCredentials</text>
</g>
<!-- WithdrawalCredentials.get -->
<g id="node25" class="node" pointer-events="visible" data-name="WithdrawalCredentials.get">

<ellipse fill="#edad56" stroke="#edad56" stroke-width="3" cx="507.77" cy="-343" rx="27" ry="18" style=""/>
<text text-anchor="middle" x="507.77" y="-338.8" font-family="Times,serif" font-size="14.00" style="">get</text>
</g>
<!-- ConsensusLayerDepositManagerV1.getWithdrawalCredentials&#45;&gt;WithdrawalCredentials.get -->
<g id="edge7" class="edge" data-name="ConsensusLayerDepositManagerV1.getWithdrawalCredentials-&gt;WithdrawalCredentials.get">

<path fill="none" stroke="white" stroke-width="2" d="M293.29,-712.67C312.33,-707.78 330.28,-699.23 343.81,-685 440.91,-582.88 285.06,-474.29 379.81,-370 401.46,-346.17 438.49,-340.53 466.99,-340.2" style=""/>
<polygon fill="white" stroke="white" stroke-width="2" points="466.71,-343.69 476.76,-340.34 466.81,-336.7 466.71,-343.69" style=""/>
</g>
<!-- ConsensusLayerDepositManagerV1.getDepositedValidatorCount -->
<g id="node8" class="node" pointer-events="visible" data-name="ConsensusLayerDepositManagerV1.getDepositedValidatorCount">

<ellipse fill="#ffbdb9" stroke="#ffbdb9" stroke-width="3" cx="179.91" cy="-550" rx="122.14" ry="18" style=""/>
<text text-anchor="middle" x="179.91" y="-545.8" font-family="Times,serif" font-size="14.00" style="">getDepositedValidatorCount</text>
</g>
<!-- DepositedValidatorCount.get -->
<g id="node28" class="node" pointer-events="visible" data-name="DepositedValidatorCount.get">

<ellipse fill="#edad56" stroke="#edad56" stroke-width="3" cx="507.77" cy="-34" rx="27" ry="18" style=""/>
<text text-anchor="middle" x="507.77" y="-29.8" font-family="Times,serif" font-size="14.00" style="">get</text>
</g>
<!-- ConsensusLayerDepositManagerV1.getDepositedValidatorCount&#45;&gt;DepositedValidatorCount.get -->
<g id="edge8" class="edge" data-name="ConsensusLayerDepositManagerV1.getDepositedValidatorCount-&gt;DepositedValidatorCount.get">

<path fill="none" stroke="white" stroke-width="2" d="M182.5,-530.64C189.68,-456.72 225.74,-189.99 379.81,-61 403.94,-40.8 439.52,-34.6 466.88,-33.14" style=""/>
<polygon fill="white" stroke="white" stroke-width="2" points="466.65,-36.65 476.54,-32.86 466.44,-29.66 466.65,-36.65" style=""/>
</g>
<!-- ConsensusLayerDepositManagerV1.depositToConsensusLayer -->
<g id="node9" class="node" pointer-events="visible" data-name="ConsensusLayerDepositManagerV1.depositToConsensusLayer">

<ellipse fill="#ffbdb9" stroke="#ffbdb9" stroke-width="3" cx="179.91" cy="-766" rx="113.48" ry="18" style=""/>
<text text-anchor="middle" x="179.91" y="-761.8" font-family="Times,serif" font-size="14.00" style="">depositToConsensusLayer</text>
</g>
<!-- ConsensusLayerDepositManagerV1.depositToConsensusLayer&#45;&gt;ConsensusLayerDepositManagerV1._setCommittedBalance -->
<g id="edge18" class="edge" data-name="ConsensusLayerDepositManagerV1.depositToConsensusLayer-&gt;ConsensusLayerDepositManagerV1._setCommittedBalance">

<path fill="none" stroke="#1bc6a6" stroke-width="2" d="M294.88,-766C326.41,-766 360.65,-766 392.21,-766" style=""/>
<polygon fill="#1bc6a6" stroke="#1bc6a6" stroke-width="2" points="392.07,-769.5 402.07,-766 392.07,-762.5 392.07,-769.5" style=""/>
</g>
<!-- ConsensusLayerDepositManagerV1.depositToConsensusLayer&#45;&gt;ConsensusLayerDepositManagerV1._getNextValidators -->
<g id="edge12" class="edge" data-name="ConsensusLayerDepositManagerV1.depositToConsensusLayer-&gt;ConsensusLayerDepositManagerV1._getNextValidators">

<path fill="none" stroke="#1bc6a6" stroke-width="2" d="M262.29,-779.49C311.72,-787.68 374.63,-798.1 424.25,-806.33" style=""/>
<polygon fill="#1bc6a6" stroke="#1bc6a6" stroke-width="2" points="423.47,-809.74 433.91,-807.93 424.61,-802.84 423.47,-809.74" style=""/>
</g>
<!-- ConsensusLayerDepositManagerV1._depositValidator -->
<g id="node10" class="node" pointer-events="visible" data-name="ConsensusLayerDepositManagerV1._depositValidator">

<ellipse fill="#edad56" stroke="#edad56" stroke-width="3" cx="507.77" cy="-874" rx="80.46" ry="18" style=""/>
<text text-anchor="middle" x="507.77" y="-869.8" font-family="Times,serif" font-size="14.00" style="">_depositValidator</text>
</g>
<!-- ConsensusLayerDepositManagerV1.depositToConsensusLayer&#45;&gt;ConsensusLayerDepositManagerV1._depositValidator -->
<g id="edge17" class="edge" data-name="ConsensusLayerDepositManagerV1.depositToConsensusLayer-&gt;ConsensusLayerDepositManagerV1._depositValidator">

<path fill="none" stroke="#1bc6a6" stroke-width="2" d="M219.78,-784.24C259.35,-802.22 322.79,-829.48 379.81,-847 395.69,-851.88 412.95,-856.19 429.48,-859.85" style=""/>
<polygon fill="#1bc6a6" stroke="#1bc6a6" stroke-width="2" points="428.47,-863.21 438.98,-861.89 429.94,-856.37 428.47,-863.21" style=""/>
</g>
<!-- ConsensusLayerDepositManagerV1.NotEnoughFunds -->
<g id="node13" class="node" pointer-events="visible" data-name="ConsensusLayerDepositManagerV1.NotEnoughFunds">

<ellipse fill="#edad56" stroke="#edad56" stroke-width="3" cx="507.77" cy="-928" rx="79.36" ry="18" style=""/>
<text text-anchor="middle" x="507.77" y="-923.8" font-family="Times,serif" font-size="14.00" style="">NotEnoughFunds</text>
</g>
<!-- ConsensusLayerDepositManagerV1.depositToConsensusLayer&#45;&gt;ConsensusLayerDepositManagerV1.NotEnoughFunds -->
<g id="edge11" class="edge" data-name="ConsensusLayerDepositManagerV1.depositToConsensusLayer-&gt;ConsensusLayerDepositManagerV1.NotEnoughFunds">

<path fill="none" stroke="#1bc6a6" stroke-width="2" d="M210.09,-784.62C242.95,-805.76 297.79,-841.53 343.81,-874 360.16,-885.53 361.61,-892.73 379.81,-901 393.68,-907.3 409.07,-912.16 424.21,-915.89" style=""/>
<polygon fill="#1bc6a6" stroke="#1bc6a6" stroke-width="2" points="423.36,-919.28 433.89,-918.1 424.92,-912.46 423.36,-919.28" style=""/>
</g>
<!-- ConsensusLayerDepositManagerV1.NoAvailableValidatorKeys -->
<g id="node14" class="node" pointer-events="visible" data-name="ConsensusLayerDepositManagerV1.NoAvailableValidatorKeys">

<ellipse fill="#edad56" stroke="#edad56" stroke-width="3" cx="507.77" cy="-550" rx="116.89" ry="18" style=""/>
<text text-anchor="middle" x="507.77" y="-545.8" font-family="Times,serif" font-size="14.00" style="">NoAvailableValidatorKeys</text>
</g>
<!-- ConsensusLayerDepositManagerV1.depositToConsensusLayer&#45;&gt;ConsensusLayerDepositManagerV1.NoAvailableValidatorKeys -->
<g id="edge13" class="edge" data-name="ConsensusLayerDepositManagerV1.depositToConsensusLayer-&gt;ConsensusLayerDepositManagerV1.NoAvailableValidatorKeys">

<path fill="none" stroke="#1bc6a6" stroke-width="2" d="M294.63,-764.85C312.86,-759.98 330.18,-751.91 343.81,-739 397.37,-688.28 327.42,-628.92 379.81,-577 384.23,-572.62 389.18,-568.87 394.48,-565.67" style=""/>
<polygon fill="#1bc6a6" stroke="#1bc6a6" stroke-width="2" points="395.83,-568.91 403.12,-561.22 392.63,-562.69 395.83,-568.91" style=""/>
</g>
<!-- ConsensusLayerDepositManagerV1.InvalidPublicKeyCount -->
<g id="node15" class="node" pointer-events="visible" data-name="ConsensusLayerDepositManagerV1.InvalidPublicKeyCount">

<ellipse fill="#edad56" stroke="#edad56" stroke-width="3" cx="507.77" cy="-604" rx="102.54" ry="18" style=""/>
<text text-anchor="middle" x="507.77" y="-599.8" font-family="Times,serif" font-size="14.00" style="">InvalidPublicKeyCount</text>
</g>
<!-- ConsensusLayerDepositManagerV1.depositToConsensusLayer&#45;&gt;ConsensusLayerDepositManagerV1.InvalidPublicKeyCount -->
<g id="edge14" class="edge" data-name="ConsensusLayerDepositManagerV1.depositToConsensusLayer-&gt;ConsensusLayerDepositManagerV1.InvalidPublicKeyCount">

<path fill="none" stroke="#1bc6a6" stroke-width="2" d="M293.55,-763.65C311.89,-758.91 329.53,-751.19 343.81,-739 382.29,-706.15 342.09,-664.71 379.81,-631 386.25,-625.25 393.6,-620.62 401.45,-616.89" style=""/>
<polygon fill="#1bc6a6" stroke="#1bc6a6" stroke-width="2" points="402.52,-620.24 410.45,-613.21 399.87,-613.76 402.52,-620.24" style=""/>
</g>
<!-- ConsensusLayerDepositManagerV1.InvalidWithdrawalCredentials -->
<g id="node16" class="node" pointer-events="visible" data-name="ConsensusLayerDepositManagerV1.InvalidWithdrawalCredentials">

<ellipse fill="#edad56" stroke="#edad56" stroke-width="3" cx="507.77" cy="-658" rx="127.91" ry="18" style=""/>
<text text-anchor="middle" x="507.77" y="-653.8" font-family="Times,serif" font-size="14.00" style="">InvalidWithdrawalCredentials</text>
</g>
<!-- ConsensusLayerDepositManagerV1.depositToConsensusLayer&#45;&gt;ConsensusLayerDepositManagerV1.InvalidWithdrawalCredentials -->
<g id="edge16" class="edge" data-name="ConsensusLayerDepositManagerV1.depositToConsensusLayer-&gt;ConsensusLayerDepositManagerV1.InvalidWithdrawalCredentials">

<path fill="none" stroke="#1bc6a6" stroke-width="2" d="M290.22,-760.52C309.11,-756.14 327.8,-749.34 343.81,-739 368.04,-723.35 355.94,-701.2 379.81,-685 385.27,-681.3 391.13,-678.09 397.24,-675.31" style=""/>
<polygon fill="#1bc6a6" stroke="#1bc6a6" stroke-width="2" points="398.48,-678.59 406.45,-671.61 395.86,-672.1 398.48,-678.59" style=""/>
</g>
<!-- ConsensusLayerDepositManagerV1.SetDepositedValidatorCount -->
<g id="node17" class="node" pointer-events="visible" data-name="ConsensusLayerDepositManagerV1.SetDepositedValidatorCount">

<ellipse fill="#edad56" stroke="#edad56" stroke-width="3" cx="507.77" cy="-712" rx="122.72" ry="18" style=""/>
<text text-anchor="middle" x="507.77" y="-707.8" font-family="Times,serif" font-size="14.00" style="">SetDepositedValidatorCount</text>
</g>
<!-- ConsensusLayerDepositManagerV1.depositToConsensusLayer&#45;&gt;ConsensusLayerDepositManagerV1.SetDepositedValidatorCount -->
<g id="edge21" class="edge" data-name="ConsensusLayerDepositManagerV1.depositToConsensusLayer-&gt;ConsensusLayerDepositManagerV1.SetDepositedValidatorCount">

<path fill="none" stroke="#1bc6a6" stroke-width="2" d="M262.29,-752.51C306.85,-745.13 362.36,-735.93 409.22,-728.17" style=""/>
<polygon fill="#1bc6a6" stroke="#1bc6a6" stroke-width="2" points="409.59,-731.65 418.89,-726.56 408.45,-724.75 409.59,-731.65" style=""/>
</g>
<!-- ConsensusLayerDepositManagerV1.depositToConsensusLayer&#45;&gt;WithdrawalCredentials.get -->
<g id="edge15" class="edge" data-name="ConsensusLayerDepositManagerV1.depositToConsensusLayer-&gt;WithdrawalCredentials.get">

<path fill="none" stroke="white" stroke-width="2" d="M294.73,-766.52C313.28,-761.56 330.69,-753.03 343.81,-739 400.09,-678.82 324.92,-431.44 379.81,-370 401.26,-345.99 438.31,-340.37 466.87,-340.09" style=""/>
<polygon fill="white" stroke="white" stroke-width="2" points="466.62,-343.59 476.68,-340.26 466.74,-336.59 466.62,-343.59" style=""/>
</g>
<!-- ConsensusLayerDepositManagerV1.depositToConsensusLayer&#45;&gt;CommittedBalance.get -->
<g id="edge9" class="edge" data-name="ConsensusLayerDepositManagerV1.depositToConsensusLayer-&gt;CommittedBalance.get">

<path fill="none" stroke="white" stroke-width="2" d="M294.46,-766.77C313.16,-761.82 330.69,-753.22 343.81,-739 408.25,-669.19 324.37,-390.15 379.81,-313 400.11,-284.75 438.07,-270.86 467.22,-264.13" style=""/>
<polygon fill="white" stroke="white" stroke-width="2" points="467.84,-267.57 476.93,-262.12 466.42,-260.72 467.84,-267.57" style=""/>
</g>
<!-- ConsensusLayerDepositManagerV1.depositToConsensusLayer&#45;&gt;DepositedValidatorCount.get -->
<g id="edge19" class="edge" data-name="ConsensusLayerDepositManagerV1.depositToConsensusLayer-&gt;DepositedValidatorCount.get">

<path fill="none" stroke="white" stroke-width="2" d="M294.41,-767.21C313.23,-762.24 330.82,-753.53 343.81,-739 444.41,-626.55 281.79,-175.7 379.81,-61 400.79,-36.45 438.07,-30.93 466.82,-30.82" style=""/>
<polygon fill="white" stroke="white" stroke-width="2" points="466.63,-34.32 476.71,-31.05 466.79,-27.32 466.63,-34.32" style=""/>
</g>
<!-- DepositedValidatorCount.set -->
<g id="node29" class="node" pointer-events="visible" data-name="DepositedValidatorCount.set">

<ellipse fill="#edad56" stroke="#edad56" stroke-width="3" cx="507.77" cy="-88" rx="27" ry="18" style=""/>
<text text-anchor="middle" x="507.77" y="-83.8" font-family="Times,serif" font-size="14.00" style="">set</text>
</g>
<!-- ConsensusLayerDepositManagerV1.depositToConsensusLayer&#45;&gt;DepositedValidatorCount.set -->
<g id="edge20" class="edge" data-name="ConsensusLayerDepositManagerV1.depositToConsensusLayer-&gt;DepositedValidatorCount.set">

<path fill="none" stroke="white" stroke-width="2" d="M294.32,-767.13C313.15,-762.18 330.76,-753.48 343.81,-739 432.64,-640.43 303.68,-251.67 379.81,-143 399.77,-114.51 437.78,-100.65 467.02,-93.99" style=""/>
<polygon fill="white" stroke="white" stroke-width="2" points="467.68,-97.43 476.78,-92.01 466.29,-90.57 467.68,-97.43" style=""/>
</g>
<!-- LibUint256.min -->
<g id="node30" class="node" pointer-events="visible" data-name="LibUint256.min">

<ellipse fill="#edad56" stroke="#edad56" stroke-width="3" cx="773.95" cy="-102" rx="27" ry="18" style=""/>
<text text-anchor="middle" x="773.95" y="-97.8" font-family="Times,serif" font-size="14.00" style="">min</text>
</g>
<!-- ConsensusLayerDepositManagerV1.depositToConsensusLayer&#45;&gt;LibUint256.min -->
<g id="edge10" class="edge" data-name="ConsensusLayerDepositManagerV1.depositToConsensusLayer-&gt;LibUint256.min">

<path fill="none" stroke="white" stroke-width="2" d="M294.68,-765.97C313.13,-761.04 330.51,-752.66 343.81,-739 424.91,-655.75 296.45,-560.97 379.81,-480 461.89,-400.28 554.73,-532.82 635.72,-452 737.96,-349.97 577.5,-238.49 671.72,-129 686.75,-111.53 711.7,-104.74 733.07,-102.34" style=""/>
<polygon fill="white" stroke="white" stroke-width="2" points="733.07,-105.85 742.77,-101.58 732.53,-98.87 733.07,-105.85" style=""/>
</g>
<!-- ConsensusLayerDepositManagerV1.InconsistentPublicKeys -->
<g id="node18" class="node" pointer-events="visible" data-name="ConsensusLayerDepositManagerV1.InconsistentPublicKeys">

<ellipse fill="#edad56" stroke="#edad56" stroke-width="3" cx="773.95" cy="-793" rx="102.46" ry="18" style=""/>
<text text-anchor="middle" x="773.95" y="-788.8" font-family="Times,serif" font-size="14.00" style="">InconsistentPublicKeys</text>
</g>
<!-- ConsensusLayerDepositManagerV1._depositValidator&#45;&gt;ConsensusLayerDepositManagerV1.InconsistentPublicKeys -->
<g id="edge22" class="edge" data-name="ConsensusLayerDepositManagerV1._depositValidator-&gt;ConsensusLayerDepositManagerV1.InconsistentPublicKeys">

<path fill="none" stroke="#1bc6a6" stroke-width="2" d="M579.35,-864.63C598.19,-860.63 618.18,-854.97 635.72,-847 653.93,-838.73 653.73,-828.74 671.72,-820 678.19,-816.86 685.08,-814.04 692.1,-811.53" style=""/>
<polygon fill="#1bc6a6" stroke="#1bc6a6" stroke-width="2" points="693.14,-814.87 701.53,-808.4 690.93,-808.22 693.14,-814.87" style=""/>
</g>
<!-- ConsensusLayerDepositManagerV1.InconsistentSignatures -->
<g id="node19" class="node" pointer-events="visible" data-name="ConsensusLayerDepositManagerV1.InconsistentSignatures">

<ellipse fill="#edad56" stroke="#edad56" stroke-width="3" cx="773.95" cy="-847" rx="98.44" ry="18" style=""/>
<text text-anchor="middle" x="773.95" y="-842.8" font-family="Times,serif" font-size="14.00" style="">InconsistentSignatures</text>
</g>
<!-- ConsensusLayerDepositManagerV1._depositValidator&#45;&gt;ConsensusLayerDepositManagerV1.InconsistentSignatures -->
<g id="edge23" class="edge" data-name="ConsensusLayerDepositManagerV1._depositValidator-&gt;ConsensusLayerDepositManagerV1.InconsistentSignatures">

<path fill="none" stroke="#1bc6a6" stroke-width="2" d="M583.06,-866.41C610.97,-863.55 643.17,-860.26 673.03,-857.21" style=""/>
<polygon fill="#1bc6a6" stroke="#1bc6a6" stroke-width="2" points="673.06,-860.73 682.65,-856.23 672.35,-853.76 673.06,-860.73" style=""/>
</g>
<!-- ConsensusLayerDepositManagerV1.IDepositContract -->
<g id="node20" class="node" pointer-events="visible" data-name="ConsensusLayerDepositManagerV1.IDepositContract">

<ellipse fill="#edad56" stroke="#edad56" stroke-width="3" cx="773.95" cy="-901" rx="77.59" ry="18" style=""/>
<text text-anchor="middle" x="773.95" y="-896.8" font-family="Times,serif" font-size="14.00" style="">IDepositContract</text>
</g>
<!-- ConsensusLayerDepositManagerV1._depositValidator&#45;&gt;ConsensusLayerDepositManagerV1.IDepositContract -->
<g id="edge33" class="edge" data-name="ConsensusLayerDepositManagerV1._depositValidator-&gt;ConsensusLayerDepositManagerV1.IDepositContract">

<path fill="none" stroke="#1bc6a6" stroke-width="2" d="M583.06,-881.59C615.81,-884.94 654.46,-888.89 688.32,-892.35" style=""/>
<polygon fill="#1bc6a6" stroke="#1bc6a6" stroke-width="2" points="687.72,-895.81 698.02,-893.34 688.43,-888.84 687.72,-895.81" style=""/>
</g>
<!-- ConsensusLayerDepositManagerV1.ErrorOnDeposit -->
<g id="node21" class="node" pointer-events="visible" data-name="ConsensusLayerDepositManagerV1.ErrorOnDeposit">

<ellipse fill="#edad56" stroke="#edad56" stroke-width="3" cx="773.95" cy="-955" rx="73.01" ry="18" style=""/>
<text text-anchor="middle" x="773.95" y="-950.8" font-family="Times,serif" font-size="14.00" style="">ErrorOnDeposit</text>
</g>
<!-- ConsensusLayerDepositManagerV1._depositValidator&#45;&gt;ConsensusLayerDepositManagerV1.ErrorOnDeposit -->
<g id="edge35" class="edge" data-name="ConsensusLayerDepositManagerV1._depositValidator-&gt;ConsensusLayerDepositManagerV1.ErrorOnDeposit">

<path fill="none" stroke="#1bc6a6" stroke-width="2" d="M579.35,-883.37C598.19,-887.37 618.18,-893.03 635.72,-901 653.93,-909.27 653.73,-919.26 671.72,-928 681.24,-932.63 691.67,-936.54 702.1,-939.84" style=""/>
<polygon fill="#1bc6a6" stroke="#1bc6a6" stroke-width="2" points="700.8,-943.1 711.38,-942.57 702.78,-936.39 700.8,-943.1" style=""/>
</g>
<!-- DepositContractAddress.get -->
<g id="node23" class="node" pointer-events="visible" data-name="DepositContractAddress.get">

<ellipse fill="#edad56" stroke="#edad56" stroke-width="3" cx="773.95" cy="-295" rx="27" ry="18" style=""/>
<text text-anchor="middle" x="773.95" y="-290.8" font-family="Times,serif" font-size="14.00" style="">get</text>
</g>
<!-- ConsensusLayerDepositManagerV1._depositValidator&#45;&gt;DepositContractAddress.get -->
<g id="edge34" class="edge" data-name="ConsensusLayerDepositManagerV1._depositValidator-&gt;DepositContractAddress.get">

<path fill="none" stroke="white" stroke-width="2" d="M589.48,-872.53C607.04,-868.32 623.88,-860.59 635.72,-847 708.47,-763.51 611.71,-443.06 671.72,-350 686.1,-327.69 712.77,-313.74 735.13,-305.46" style=""/>
<polygon fill="white" stroke="white" stroke-width="2" points="736.11,-308.82 744.46,-302.3 733.87,-302.19 736.11,-308.82" style=""/>
</g>
<!-- LibUint256.toLittleEndian64 -->
<g id="node31" class="node" pointer-events="visible" data-name="LibUint256.toLittleEndian64">

<ellipse fill="#edad56" stroke="#edad56" stroke-width="3" cx="773.95" cy="-156" rx="76.45" ry="18" style=""/>
<text text-anchor="middle" x="773.95" y="-151.8" font-family="Times,serif" font-size="14.00" style="">toLittleEndian64</text>
</g>
<!-- ConsensusLayerDepositManagerV1._depositValidator&#45;&gt;LibUint256.toLittleEndian64 -->
<g id="edge32" class="edge" data-name="ConsensusLayerDepositManagerV1._depositValidator-&gt;LibUint256.toLittleEndian64">

<path fill="none" stroke="white" stroke-width="2" d="M589.3,-872.74C606.97,-868.55 623.91,-860.77 635.72,-847 727.87,-739.54 595.95,-330.57 671.72,-211 681.28,-195.91 696.49,-184.65 712.25,-176.39" style=""/>
<polygon fill="white" stroke="white" stroke-width="2" points="713.5,-179.67 721.02,-172.2 710.48,-173.36 713.5,-179.67" style=""/>
</g>
<!-- bytes.concat -->
<g id="node32" class="node" pointer-events="visible" data-name="bytes.concat">

<ellipse fill="#edad56" stroke="#edad56" stroke-width="3" cx="773.95" cy="-465" rx="36.47" ry="18" style=""/>
<text text-anchor="middle" x="773.95" y="-460.8" font-family="Times,serif" font-size="14.00" style="">concat</text>
</g>
<!-- ConsensusLayerDepositManagerV1._depositValidator&#45;&gt;bytes.concat -->
<g id="edge24" class="edge" data-name="ConsensusLayerDepositManagerV1._depositValidator-&gt;bytes.concat">

<path fill="none" stroke="white" stroke-width="2" d="M516.84,-854.62C539.5,-832.82 604.12,-836.92 635.72,-802 733.81,-693.58 590.21,-596.38 671.72,-475 691.57,-445.44 732.76,-430.4 756.01,-439.1" style=""/>
<polygon fill="white" stroke="white" stroke-width="2" points="753.81,-441.84 764.07,-444.47 757.69,-436.01 753.81,-441.84" style=""/>
</g>
<!-- ConsensusLayerDepositManagerV1._depositValidator&#45;&gt;bytes.concat -->
<g id="edge25" class="edge" data-name="ConsensusLayerDepositManagerV1._depositValidator-&gt;bytes.concat">

<path fill="none" stroke="white" stroke-width="2" d="M539.83,-856.11C569.07,-850.5 611.83,-846.4 635.72,-820 733.81,-711.58 590.21,-614.38 671.72,-493 686.47,-471.03 713.01,-457.08 735.21,-452.45" style=""/>
<polygon fill="white" stroke="white" stroke-width="2" points="735.53,-455.94 745,-451.19 734.63,-449 735.53,-455.94" style=""/>
</g>
<!-- ConsensusLayerDepositManagerV1._depositValidator&#45;&gt;bytes.concat -->
<g id="edge27" class="edge" data-name="ConsensusLayerDepositManagerV1._depositValidator-&gt;bytes.concat">

<path fill="none" stroke="white" stroke-width="2" d="M580.86,-865.37C601.28,-861.27 621.73,-853.46 635.72,-838 733.81,-729.58 590.21,-632.38 671.72,-511 684.08,-492.59 704.72,-479.81 724.15,-471.97" style=""/>
<polygon fill="white" stroke="white" stroke-width="2" points="725.23,-475.3 733.47,-468.64 722.88,-468.71 725.23,-475.3" style=""/>
</g>
<!-- ConsensusLayerDepositManagerV1._depositValidator&#45;&gt;bytes.concat -->
<g id="edge29" class="edge" data-name="ConsensusLayerDepositManagerV1._depositValidator-&gt;bytes.concat">

<path fill="none" stroke="white" stroke-width="2" d="M581.52,-882.41C601.72,-879.1 621.89,-871.29 635.72,-856 733.81,-747.58 590.21,-650.38 671.72,-529 686.49,-507 713.08,-493.05 735.3,-483.45" style=""/>
<polygon fill="white" stroke="white" stroke-width="2" points="736.41,-486.78 744.3,-479.7 733.72,-480.31 736.41,-486.78" style=""/>
</g>
<!-- ConsensusLayerDepositManagerV1._depositValidator&#45;&gt;bytes.concat -->
<g id="edge30" class="edge" data-name="ConsensusLayerDepositManagerV1._depositValidator-&gt;bytes.concat">

<path fill="none" stroke="white" stroke-width="2" d="M526.19,-892.87C553.91,-905.25 607.75,-904.91 635.72,-874 733.81,-765.58 590.21,-668.38 671.72,-547 690.12,-519.6 726.85,-504.67 750.64,-490.29" style=""/>
<polygon fill="white" stroke="white" stroke-width="2" points="752.29,-493.4 758.63,-484.92 748.38,-487.59 752.29,-493.4" style=""/>
</g>
<!-- ConsensusLayerDepositManagerV1._depositValidator&#45;&gt;bytes.concat -->
<g id="edge31" class="edge" data-name="ConsensusLayerDepositManagerV1._depositValidator-&gt;bytes.concat">

<path fill="none" stroke="white" stroke-width="2" d="M514.99,-893.25C535.76,-922.55 603.21,-927.92 635.72,-892 733.81,-783.58 590.21,-686.38 671.72,-565 692.89,-533.48 738.33,-518.46 760.4,-494.45" style=""/>
<polygon fill="white" stroke="white" stroke-width="2" points="763.22,-496.54 766.29,-486.4 757.56,-492.41 763.22,-496.54" style=""/>
</g>
<!-- LibBytes.slice -->
<g id="node33" class="node" pointer-events="visible" data-name="LibBytes.slice">

<ellipse fill="#edad56" stroke="#edad56" stroke-width="3" cx="773.95" cy="-380" rx="28.97" ry="18" style=""/>
<text text-anchor="middle" x="773.95" y="-375.8" font-family="Times,serif" font-size="14.00" style="">slice</text>
</g>
<!-- ConsensusLayerDepositManagerV1._depositValidator&#45;&gt;LibBytes.slice -->
<g id="edge26" class="edge" data-name="ConsensusLayerDepositManagerV1._depositValidator-&gt;LibBytes.slice">

<path fill="none" stroke="white" stroke-width="2" d="M581.4,-865.49C601.72,-861.38 621.98,-853.53 635.72,-838 696.61,-769.16 621.34,-502.87 671.72,-426 685.47,-405.02 710.03,-391.4 731.52,-384.02" style=""/>
<polygon fill="white" stroke="white" stroke-width="2" points="732.23,-387.46 740.81,-381.25 730.23,-380.75 732.23,-387.46" style=""/>
</g>
<!-- ConsensusLayerDepositManagerV1._depositValidator&#45;&gt;LibBytes.slice -->
<g id="edge28" class="edge" data-name="ConsensusLayerDepositManagerV1._depositValidator-&gt;LibBytes.slice">

<path fill="none" stroke="white" stroke-width="2" d="M581.07,-882.71C601.5,-879.47 621.91,-871.61 635.72,-856 696.61,-787.16 621.34,-520.87 671.72,-444 686.98,-420.71 715.58,-406.49 738.5,-396.91" style=""/>
<polygon fill="white" stroke="white" stroke-width="2" points="739.77,-400.17 747.72,-393.17 737.14,-393.68 739.77,-400.17" style=""/>
</g>
<!-- key -->
<g id="node34" class="node" pointer-events="visible" data-name="key">

<polygon fill="#edad56" stroke="none" stroke-width="3" points="244.91,-1191 114.91,-1191 114.91,-1103 244.91,-1103 244.91,-1191" style=""/>
<text text-anchor="start" x="164.54" y="-1172.4" font-family="Times,serif" font-size="14.00" style="">Internal Call</text>
<text text-anchor="start" x="160.65" y="-1152.4" font-family="Times,serif" font-size="14.00" style="">External Call</text>
<text text-anchor="start" x="138.11" y="-1132.4" font-family="Times,serif" font-size="14.00" style="">Defined Contract</text>
<text text-anchor="start" x="124.51" y="-1112.4" font-family="Times,serif" font-size="14.00" style="">Undefined Contract</text>
</g>
<!-- key2 -->
<g id="node35" class="node" pointer-events="visible" data-name="key2">

<polygon fill="#edad56" stroke="none" stroke-width="3" points="534.77,-1191 480.77,-1191 480.77,-1103 534.77,-1103 534.77,-1191" style=""/>
<text text-anchor="start" x="497.77" y="-1172.4" font-family="Times,serif" font-size="14.00" style="">   </text>
<text text-anchor="start" x="497.77" y="-1152.4" font-family="Times,serif" font-size="14.00" style="">   </text>
<polygon fill="#445773" stroke="none" points="495.77,-1127 495.77,-1147 520.77,-1147 520.77,-1127 495.77,-1127" style=""/>
<text text-anchor="start" x="497.77" y="-1132.4" font-family="Times,serif" font-size="14.00" style="">   </text>
<polygon fill="none" stroke="#e8726d" points="497.77,-1109 497.77,-1125 518.77,-1125 518.77,-1109 497.77,-1109" style=""/>
</g>
<!-- key&#45;&gt;key2 -->
<g id="edge36" class="edge" data-name="key-&gt;key2">

<path fill="none" stroke="#1bc6a6" stroke-width="2" d="M237.91,-1177C347.61,-1177 378.25,-1177 481.77,-1177" style=""/>
<polygon fill="#1bc6a6" stroke="#1bc6a6" stroke-width="2" points="481.74,-1180.5 491.74,-1177 481.74,-1173.5 481.74,-1180.5" style=""/>
</g>
<!-- key&#45;&gt;key2 -->
<g id="edge37" class="edge" data-name="key-&gt;key2">

<path fill="none" stroke="white" stroke-width="2" d="M237.91,-1157C347.61,-1157 378.25,-1157 481.77,-1157" style=""/>
<polygon fill="white" stroke="white" stroke-width="2" points="481.74,-1160.5 491.74,-1157 481.74,-1153.5 481.74,-1160.5" style=""/>
</g>
</g>
</svg>